<svg xmlns="http://www.w3.org/2000/svg" viewBox="0 0 133 40">
  <defs>
    <linearGradient x1="100%" y1="0%" x2="0%" y2="100%" id="logo-gradient">
      <stop stop-color="#22FCEC" offset="0%"/>
      <stop stop-color="#29C3F4" offset="50%"/>
      <stop stop-color="#2D9CF9" offset="100%"/>
    </linearGradient>
  </defs>

  <path fill="currentColor" fill-rule="nonzero" d="M34.766 23.103l8.561 14.691V23.103h1.234V39.7h-1.42l-8.898-15.103v15.103h-1.234V23.103h1.757zm13.57 7.925c.187-.785.486-1.458.898-2.019.41-.56.934-1.009 1.57-1.308.635-.3 1.383-.486 2.28-.486.71 0 1.309.112 1.795.336.485.225.897.561 1.196.972.299.412.523.898.673 1.458.15.561.224 1.16.224 1.832v.823c0 .336-.037.598-.075.86h-7.551c0 1.831.299 3.14.897 4 .598.86 1.607 1.27 3.103 1.27.785 0 1.383-.15 1.869-.448.449-.3.897-.636 1.271-.972l.71.785c-.448.523-.972.934-1.607 1.308-.636.337-1.42.524-2.393.524-1.01 0-1.832-.15-2.467-.486-.673-.337-1.196-.785-1.57-1.346a5.463 5.463 0 0 1-.823-2.019 13.166 13.166 0 0 1-.224-2.467c-.075-1.01 0-1.832.224-2.617zm7.328.71c0-1.084-.187-1.944-.599-2.542-.41-.598-1.121-.897-2.13-.897-1.085 0-1.907.337-2.505 1.047-.598.71-.935 1.72-1.047 3.065h6.28v-.673zm4.523-1.233c.299-.823.673-1.458 1.121-1.944a4.265 4.265 0 0 1 1.645-1.047 6.864 6.864 0 0 1 1.982-.299c.785 0 1.42.075 1.98.262.562.187 1.048.41 1.496.71l-.56 1.01c-.412-.262-.823-.487-1.346-.636a5.567 5.567 0 0 0-1.608-.262c-1.346 0-2.318.411-2.916 1.234-.598.822-.86 2.168-.86 4.037 0 1.87.337 3.215.972 4 .636.785 1.645 1.196 2.916 1.196.673 0 1.271-.112 1.72-.373a9.006 9.006 0 0 0 1.346-.86l.635.822c-.448.486-.972.86-1.607 1.159-.636.3-1.346.411-2.206.411a6.807 6.807 0 0 1-1.944-.299c-.635-.187-1.159-.56-1.645-1.047-.486-.486-.86-1.121-1.121-1.943-.3-.823-.411-1.832-.411-3.066 0-1.234.112-2.243.41-3.065zm10.355-1.944v-.935l1.608-.374.373-2.504.935-.112v2.766h3.589v1.121H73.42v8.636c0 .374.037.635.112.86a.826.826 0 0 0 .374.486c.15.112.336.187.523.224.224.037.411.037.635.037a2.01 2.01 0 0 0 1.047-.299c.3-.187.56-.41.785-.598l.598.823c-.785.785-1.72 1.196-2.803 1.196-.823 0-1.458-.224-1.907-.636-.449-.41-.673-1.046-.673-1.869v-8.86h-1.57v.038zm9.495 6.691a2.79 2.79 0 0 1 .972-1.009 4.96 4.96 0 0 1 1.42-.636c.524-.15 1.085-.299 1.683-.41l2.467-.487v-1.383c0-1.121-.261-1.906-.785-2.318-.523-.41-1.233-.635-2.13-.635-.636 0-1.234.075-1.683.262-.486.186-.934.373-1.308.598l-.449-.972c.486-.3 1.047-.524 1.645-.748.598-.187 1.309-.299 2.131-.299 1.234 0 2.206.299 2.879.897.672.598 1.009 1.533 1.009 2.804v6.318c0 .373.037.785.075 1.233.074.449.15.86.224 1.197l-1.159.186c-.037-.186-.112-.41-.187-.71a6.9 6.9 0 0 1-.15-.86c-.485.486-1.046.898-1.682 1.16a5.55 5.55 0 0 1-2.13.41c-.972 0-1.758-.261-2.318-.822-.561-.56-.86-1.308-.86-2.318-.037-.56.075-1.046.336-1.458zm1.122 2.468c.112.261.299.486.486.635.224.15.448.262.748.337.299.074.598.112.934.112a3.41 3.41 0 0 0 1.794-.486 5.297 5.297 0 0 0 1.384-1.01V33.72l-2.355.486c-1.16.224-1.982.523-2.468.897-.486.336-.747.897-.747 1.607.037.411.112.748.224 1.01zm11.103-10.393l.074 2.43c.374-.86.823-1.495 1.421-1.944.598-.411 1.196-.635 1.87-.635.223 0 .448 0 .635.037a1.5 1.5 0 0 1 .56.112l-.186 1.346c-.337-.075-.748-.112-1.272-.112-.635 0-1.233.261-1.72.747-.523.486-.934 1.197-1.27 2.131v8.262h-1.271V27.327h1.159z"/>
  <path fill="#3276FF" fill-rule="nonzero" d="M100.748 38.318c.635.299 1.42.448 2.355.448.486 0 .934-.074 1.383-.187.449-.112.822-.299 1.159-.56a2.82 2.82 0 0 0 .785-.972c.187-.411.299-.897.299-1.458 0-.449-.075-.86-.15-1.196a2.219 2.219 0 0 0-.523-.86c-.224-.262-.523-.449-.86-.636a7.172 7.172 0 0 0-1.196-.523l-1.42-.524c-1.16-.41-2.094-1.009-2.767-1.682-.673-.71-1.01-1.607-1.01-2.804 0-1.457.45-2.542 1.31-3.29.859-.747 2.018-1.083 3.476-1.083.822 0 1.57.074 2.243.299.673.187 1.27.41 1.794.71l-.523 1.234a14.81 14.81 0 0 0-1.645-.673 6.406 6.406 0 0 0-2.056-.337c-.935 0-1.682.225-2.28.673-.599.449-.898 1.16-.898 2.131 0 .822.187 1.458.561 2.019.374.523 1.047.972 1.944 1.308l2.093.785c1.122.449 1.982 1.01 2.542 1.645.561.673.823 1.495.823 2.542 0 1.458-.449 2.58-1.308 3.44-.86.822-2.169 1.233-3.851 1.233-.935 0-1.794-.112-2.542-.374a8.154 8.154 0 0 1-1.981-.972l.598-1.196c.411.299.972.598 1.645.86zm11.888-10.804v8.112c0 .673.037 1.234.149 1.645.112.449.262.785.486 1.01.224.261.486.41.822.523.337.112.71.15 1.122.15.411 0 .748-.075 1.121-.262.337-.15.673-.374.935-.673.3-.3.56-.636.785-1.01.224-.373.411-.785.56-1.233v-8.3h1.272v12.45h-1.122l-.112-2.43c-.411.822-.897 1.42-1.458 1.831-.523.411-1.308.636-2.28.636-1.234 0-2.168-.337-2.766-1.01-.599-.673-.86-1.72-.86-3.177v-8.3h1.346v.038zm12.785-.075l.074 2.355c.374-.822.823-1.42 1.42-1.831.599-.412 1.272-.636 2.094-.636 1.346 0 2.318.337 2.954.972.635.673.934 1.757.934 3.252v8.262h-1.27v-7.85c0-.599-.038-1.16-.113-1.608-.075-.448-.187-.822-.411-1.121a1.55 1.55 0 0 0-.823-.636c-.336-.15-.822-.187-1.383-.187-.411 0-.785.075-1.159.262a3.612 3.612 0 0 0-.972.71c-.299.3-.523.636-.747 1.01a4.85 4.85 0 0 0-.524 1.196v8.224h-1.27V27.44h1.196z"/>
  <path fill="url(#logo-gradient)" d="M22.99 2.43c-2.616 3.7.748 7.7-1.233 10.542-4.262 6.056-14.28 1.981-19.626 9.57A10.752 10.752 0 0 0 .15 28.785c0 3.44 1.644 6.841 4.672 8.935a10.865 10.865 0 0 0 6.28 1.98c3.477 0 6.88-1.607 9.01-4.672 5.346-7.589-1.906-15.551 2.355-21.607 2.019-2.842 6.916-1.047 9.533-4.785a5.411 5.411 0 0 0 1.01-3.14c0-1.72-.823-3.403-2.356-4.487a5.453 5.453 0 0 0-3.14-.972c-1.72.075-3.44.86-4.523 2.393"/>
</svg>
