<svg class="map__image" viewBox="0 0 795 450" width="795" height="450" xmlns="http://www.w3.org/2000/svg" xmlns:xlink="http://www.w3.org/1999/xlink">
  <defs>
    <path id="a" d="M0 0h795v450H0z"/>
    <path d="M673.598 251.733v7.106l2.18 1.22 1.414 1.324.998 3.306-.998 2.862v4.245l-.796 3.625.796 3.644 1.996 1.978 2.433-.912 1.03.912h2.4l2.014 1.147 2.727.962 2.846 2.17 1.85 3.055.734 1.12 1.492 2.22.724 3.644-.724 1.66-1.492 1.517v3.634l-.734 2.003-1.85 1.575v3.223l-2.846.652-1.13-1.694-.874-2.18v-1.576l-.723-1.413-1.095-1.553-.92-2.029-1.583-.642v-2.465l-.817-2.435h-3.462l-1.996 1.723.998 1.66v.883l-1.794.634-1.924-.634v-2.543l-.874-2.306.874-1.337-1.83-1.41-1.682-.812-.539-2.823-2.105 1.704-1.836 1.12v2.22l-2.022 1.338-.83 3.018.83 1.83-1.79 1.277 1.79 1.072-.83 2.51-2.427 2.21-.835-.797-2.763-3.923 1.056-3.232-1.056-1.659-1.29-.93-1.759.93-1.113 2.543v4.267l-.55 2.004v2.334l-1.736 1.422.639 3.417 1.097 1.728-1.097 1.63v.978l-.64.957-1.884 2.71v3.365l2.524 1.28 2.76-1.28 1.76-1.057 1.29 1.057v1.28l1.769 1.676 1.828-1.677V316.641l1.466-.957.96-1.698h2.853l.56-.91 2.092-1.132 1.29-2.32 1.298 1.724.922 1.728-1.682 1.63-1.828 1.935-.816 3.298v4.056l-1.836 1.677.56 3.048-.56 1.84v5.772l2.652 1.08 4.466 2.017 1.545 1.353 2.05.878 1.995 2.136h2.433l3.43-.6 1.455 1.955.56 2.04-2.016 1.267.92.861 1.818 1.887-1.282.677.56 1.57-2.016 1.185v1.768l.92 1.67 1.095-1.67.723-.798 2.004-.97.596.97.816 2.468.649 1.518v1.236l.785 1.167v2.882l-.785 2.42-.649 1.928v6.421l.649 3.286-1.465 1.32v4.274l1.465 2.95v1.27l-1.465 2.074-.596 2.391v4.1l-1.13.903v3.058l-.874 3.028-.723 2.28-1.095 2.447-.92 1.497-1.583 1.506v4.42l-.817 1.376-1.877.575v2.102l-1.042.674-1.54 1.93h-2.414v2.646l-1.305 2.21v2.503l-.874-1.366-1.878 1.366.922 1.743-.922 2.25v1.197l-1.9.87-.688 2.239-.816 1.821-3.858 2.063v1.17l-1.79 2.47-1.467 1.228-.835 1.372v1.448h-479.87v-1.997l-.69-2.05-1.615-1.282-1.132-1.768 1.723-1.523v-1.131l1.025-1.12.69-1.84 1.132-1.1-1.133-.87-.69 1.97-1.615 1.84-2.02 1.12-.601 1.131-.95 2.644-1.606-1.121-.748-2.654-1.148-1.821-1.347-2.239v-2.067l.737-1.698-.737-1.72v-1.94l-1.048-1.138-.807-1.203-1.493 1.203.912 1.137.58 1.366-.58 1.743.58 1.085.808 1.165v3.167l1.048 1.139v1.821l.737 1.131-.737 1.523v1.12H38.212l-.774-2.643-2.465-2.952-2.08-4.306-1.569-3.993-1.66-3.706-.789-4.556-1.195-3.803-1.189-3.415-2.775-5.085-1.042-2.501-1.972-3.1-1.435-3.769-1.69-2.317-1.729-4.435-.858-1.655-.585-2.772v-3.22l-3.585-7.2-1.238-5.712-1.415-3.202-.814-4.58-1.755-4.61-.986-8.947-1.285-2.564v-4.928l-.923-3.609v-4.45l-1.243-4.191v-8.146L.55 319.35l.612-5.364v-17.913l-.612-4.355v-1.41l.612-4.295v-9.741l1.243-1.503v-2.312l.923-2.485v-3.882l1.285-2.128.986-3.289 1.755-.614v-2.78l.814-1.802.736-2.528v-1.733l1.332-1.565.585-2.837v-2.232l.996-2.728v-2.688l2.589-1.48 2.522-1.352h3.035l.74-.84 1.972-1.377 1.936 1.378 1.881-1.378 2.384 2.217v2.832l2.45.802.992 1.886h2.656l2.465-1.886c.516.452.774.185.774-.802v-2.832l3.208-1.628 1.072-1.537 3.714-.83 2.101.83 1.613 2.326 2.252 2.19 4.04-2.19 2.816-.79v3.625l-.735 1.638.735 3.064.804 2.55.63 3.109.978 3.392v2.13l1.913 2.354 3.057.712.924 2.78 1.153 1.324 2.36-.71 1.571 2.117 3.301 4.761 1.345 2.421 2.371 1.824 1.961 2.973 1.567 3.249-1.567 1.047.851 1.978 2.653 2.11h2.78v3.52l2.111 1.704.614 1.93 1.32 2.748 1.24 1.377 2.804 1.641.763 2.465v1.714l-.763.957 1.304.962 1.53.591v1.413l-4.068 1.575v7.326l-1.57.91H88.72l-4.677-3.39-1.08-1.623-2.44-2.464h-2.126v4.087l1.038.752 2.812.596 2.653 2.762 1.861 2.908.92 2.325v4.057l1.04 4.061 1.07 1.874v1.548l1.934 2.638 1.24.64 1.57 2.654.652 2.59.582 3.196 2.238 2.63.595 3.492-1.529 1.13.934 3.571v2.386l2.455 3.188c.973.823 1.46 1.624 1.46 2.403 0 .78.459 1.927 1.378 3.443l2.145 1.86v4.031l2.123 2.867.867 1.45h5.327v-2.426l.62-2.647v-2.348l1.329-.928H121.82l1.47 1.928 3.157 2.104 2.53 4.317.595 3.286 1.288 2.71 2.449 1.648 1.959 2.842c1.168.877 1.753 1.54 1.753 1.988 0 .448.186 1.348.558 2.7l2.869 2.391 2.14 2.378 1.015 2.625 1.66.8v1.517l2.22 2.217 3.165 2.595 1.896 3.684 2.806 1.497 1.565-1.497 2.725.874 2.677.623h2.13l2.887 2.942 2.436 2.116.737 2.244.61 2 2.738.677 2.315 1.7 2.611 1.747 2.847-.842 2.077-2.605 2.605-2.677.577-2.84 2.197-1.52 1.203-1.436 1.459-1.506 2.137-1.497 2.568-2.447.66-3.832 1.023-2.217V397.313l1.715-2.703 1.621-.83v-2.958l-1.62 1.304-4.167-2.027-1.11-1.977-1.871.626H187.954l-2.873.606-2.761-3.22-1.824-1.606-.69-2.884-1.615-2.71-1.132-.744-2.439-1.491-1.606.604v.887l-1.896.744-2.395-3.286-2.3-2.426v-1.89l-3.48-3.105-1.297 1 .672-1.928-1.522-1.859v-5.846h2.147v-1.518l-1.297-1.67-1.467-.798v-1.588h2.764v-3.572l.799-1.99 1.344-1.856-2.143-1.451-2.147-1.355 2.946-3.796h2.68l1.494 1.66.807 1.537 1.048 1.194 3.243 1.436 3.157 2.631 2.02-1.267 3.438 1.267-1.133-3.307 1.133-1.355 2.077 2.806 1.375.589 1.23 1.267 2.203 1.99 4.189-1.129h5.432l2.693 1.13 2.798 2 2.828 1.005 3.837 2.154v2.468l1.938 1.518.98 1.236v3.242h2.195l.587 1.368 1.349 1.86 2.588 1.927 3.94 1.348 4.22 1.772 3.608 1.851h2.447l2.948.768 3.291-1.744.723-1.89v-2.105l.935-1.928v-2.42l-1.658-2.882-1.398-3.103-2.574-.818v-1.67h1.977l-.028-.016h-2.133l-1.002-1.749-.863-2.267-1.129-2.896-.923-3.417-2.294-.928-1.507-1.506-1.368-2.832v-2.322l-1.225-1.707h5.682l.712-1.588 2.915-.974v-1.555l-.863-1.514.863-1.475 2.464 1.056 1.952-1.056 3.235-.934-2.174-.777-2.342-.636-2.133-1.82h-2.994l-2.315.642-3.036-1.02-1.966-.534-2.894-.61-1.671.934-2.014.21-1.377 1.02v1.814l1.1 1.908.277 2.224 4.303 1.45.837 2.029-2.461 1.206-.665-1.588-1.598-.974-4.997.384-1.437.972h-3.405l-.702-1.356 1.919-2.493-.29-1.434-.433-1.551-1.794-2.072-.668-1.16 2.462-.59h2.41l1.938-1.206-3.067-2.114-2.09-1.079-1.653-2.26 1.445-2.386-4.223-3.054-2.428.682-1.22 1.004-2.172.278-3.082.354v1.914l-2.291 2.457-.637 1.815-1.29-1.03-2.36-1.027-.983 1.794-1.437 1.501-1.677 2.567-1.285 2.199-1.426-1.178-2.438.918-.5 1.361-1.71.648-.757 1.654-.398 1.933v1.94L176.23 336v2.06l1.725 1.924 1.53 1.754-.991 2.419-1.418-1.811-3.221-.608-2.481-1.754-.928 1.16h-1.916l-.581-1.65-1.759-1.434-1.243-2.06v-1.413l-1.46-1.058-.939-1.45-2.722-1.22-1.699-.731-1.455-.834-.95 1.565-.575 1.789-2.195-1.514v-1.278l-.63-1.443-1.496-1.603-.745 1.138v1.346l.473 2.416-.473 1.82-.644 1.37-1.862.659-2.117 2.913 1.27 1.021 1.923 1.652v-1.652l1.903 2.245v3.394l-1.903.928-1.573 1.686-.66-2.059-.323-1.53-1.836.666v1.828l-1.29 1.456-1.755-.91-.827 2.621v1.979l-2.678-.923.32-1.397.318-1.37v-1.456l-2.156-1.519 1.069-1.506.45-1.28-.897-2.362v-1.512l.896-1.26h3.143l-1.988-1.653-1.155-2.03v-1.819l.32-1.854.835-1.443-.517-2.28-.317-2.436.834-1.15v-2.27l-.517-2.4v-1.88c.836-.816 1.254-1.319 1.254-1.507 0-.189.82-.648 2.462-1.376v-2.341c0-.296 1.24-.96 1.24-.96l.956-1.93-.588-3.218-.369-2.263-1.24-1.932-.55-1.297v-2.047l-.66-2.251v-5.078l-1.588-1.198v-1.573c0-.215-.411-.577-1.234-1.085v-4.397l.317-3.598 1.254-2.204.786-2.836v-2.18c0-.23-.893-.386-2.678-.466v-1.752-1.314c0-.27 1.155-1.468 1.155-1.793 0-.216.34-.61 1.022-1.18v-1.7l-3.073-.906-1.925-.993-1.401 1.898-1.285 2.154-1.847 1.78v1.386l.847 2.42v1.993l-.442 2.149v2.26l-.929 2.427-1.443 3.3 1.443 9.107.93 2.905 1.73.744-2.136.934v2.766l.847 1.247 1 2.31v1.265l1.285 1.711.91 2.504v5.232l-2.195 1.376.288-2.005-.82-1.712-.468-1.579-2.206-2.064-2.834 2.064.592 2.327v2.969l-1.828 1.507h-1.993l-.541 1.386h-2.15l-2.674-.612 1.311-1.051.59-1.23 2.163-.338.76-1.986.54-1.393.494-1.579v-2.628l-.493-3.223v-3.749l.858-1.89v-1.625c0-.228-.467-.63-1.4-1.204l-.76-1.303 1.302-2.076-.541-1.7-1.076-1.849-1.074-1.21-.438-3.365v-5.426l.438-1.284-.438-1.38v-1.972c.292-2.274.438-3.54.438-3.8v-2.046l1.074-1.01.316-2.233 1.3-1.7-.54-3.533v-3.557l-1.076-1.613-1.847-.693h-2.826l-4.855-1.227-1.517-1.003-1.66-1.975-.563-2.785v-2l-1.024-3.277-1.093-1.238-1.568-.662-.84-1.26-2.947 3.16-.531 1.436-1.077 1.267-1.003 1.389-1.261-1.389h-1.926l-2.808-2.293-1.593-1.381-2.3.43-3.24.541-4.11.41v1.66l-.896 3.207-1.876 1.248-2.757-.635-2.414 2.172-.319-1.537-2.444-1.248-2.487-1.185-.356-1.389-.896-1.267-1.166-2.674-.77-1.299-.724-2.238-1.052-1.15-2.965-2.009 1.853-3.168.544-2.77.568-3.73v-1.9l-1.112-2.876-1.037-1.902v-2.122l2.149-2.904 1.775-.626v-2.26l1.937-2.517.896-2.663 1.087-1.15 2.575-.922 3.65-2.007 2.275-1.483 2.044-2.205 1.022-3.165 2.482-.977.824-2.221.745-2.347 1.78 1.773h2.416l1.691 1.278v1.517l.608 4.42.776 2.34-.776 4 1.593 2.767.712 2.213v2.299l1.552 2.567v3.07l.544 1.714.927-1.369 2.26-1.142h2.611l2.946-2.273 2.41-2.567c1.41-.87 2.116-1.433 2.116-1.693 0-.259.502-1.067 1.504-2.426v-3.16l.719-2.93c1.6-1.236 2.68-2.004 3.24-2.303.559-.3.559-1.056 0-2.27v-2.28l-.84-1.966v-5.59l2.423-.753.658-2.41 1.816 1.78.336 1.383 1.565 1.642-.59 2.412v1.536l2.437 1.966c1.078-.651 1.617-1.081 1.617-1.289 0-.312.493-1.205.858-2.483l1.913-.312-.507 2.118-.784 1.555.513 1.694 2.728 2.16 2.177-.609 1.371 1.367 3.686-.757 1.925-1.164 2.05 1.506 3.2.764 2.196 1.518 1.507-1.07c1.206-.299 2.31-.565 3.31-.797 0 0 1.75-.757 2.767-1.367l1.109-1.198v2.914l-2.126 1.982 3.132-.748 1.765-2.34 2.93 1.554 3.027 1.534.868 3.25 1.551 1.15 2.51.397.745-1.547v-2.1l2.435-.347v-1.551c0-.19.639-.452 1.916-.786v-2.164l1.333-1.198 1.102-2.047c.374-.77.66-1.154.86-1.154.198 0 .786-.735 1.76-2.207l2.207-1.773.517 1.773 2.504.27v-1.343l-1.547-.7 1.547-1.364 1.759.995 1.843 1.069 1.677-.7c.743.735 1.115 1.222 1.115 1.46 0 .24-.196.77-.587 1.59l-2.667 1.518-.823 1.424v1.833l-.917 1.506-2.947-.342-1.474 1.106-.736 1.234-.276 2.455-1.725 2.035-.616-1.414-.914-1.178-1.194-1.614v1.267l-.468 1.525-1.664 1.725.331 2.358 1.801.652.634 1.442-1.901.721-1.432.872.898 1.384 2.995.358 2.774 1.257.48 1.443 1.53.83-2.408.796 1.891 1.715-.736 2.13-1.155 1.326 3.365.29 2.13 1.38 2.195 1.163 2.501-.756c1.37-.495 2.277-.877 2.72-1.145.444-.267.964-.022 1.562.738l1.788 2.062v3.343l-.627 1.498 1.837 2.701 1.718.532 2.127-1.113 1.718-1.36 1.948 2.473 1.969-1.113.648-1.36 1.409-1.093v-1.676l1.861-3.237 1.445-1.993 1.74-3.277h2.556l4.273-.283 1.1 1.856-.572 2.04v2.062l.573 2.533 2.29.299.97-1.116 2.156-2.615.6-1.9v-2.567c0-.307.84-1.193 1.144-1.822.203-.42.318-1.257.347-2.51l1.643-2.274c1.616-.198 2.518-.297 2.707-.297.189 0 .96.322 2.315.966l1.992 1.126 2.464 1.274 1.067 1.326 1.946 2.211 4.109.307 3.04 1.327 1.584-1.327v-3.844l-.887-1.626s-2.413-.446-2.413-1.74l-2.434-.96-2.36-.358-2.29-1.901-2.25.517-2.03-.517-1.538-.744h-1.954l-.644-2.426-.619-1.347 1.263-1.01-.95-1.726v-2.328l-.313-1.982 2.678-1.716 2.531-2.387 1.002-1.424c.383-.66.574-1.165.574-1.517 0-.352.42-.688 1.257-1.008l.698-3.02L240.7 185l2.5-2.079 2.168 1.326 1.613-.63 3.038-.696c1.752-.21 2.628-.42 2.628-.63 0-.21.411-.599 1.233-1.168l2.399-.268 2.685-1.034 2.439-.381.415-1.704 1.362-.89v-2.093l-1.362-1.656-1.831-1.934-.65-1.753-2.245 1.56-.813-1.193-4.27 2.168-1.99 1.152-.586 2.955-3.3 1.122-3.56.912-2.151-.477-3.028-.435-2.17.562-1.608 1.317h-2.983l-2.424 2.07-2.667 1.798-3.223 2.726-.592 1.364-1.19 2.347.812 1.909.378 2.261-1.976 4.812-2.687 1.07h-1.87l-6.582.48-1.373 1.526-2.565.922-.648 1.814-2.507 2.89-1.41 1.272-1.718.872-2.127.432-2.928.952-1.29-1.901-1.626-1.35-1.717.606-1.846 2.645-1.73-.952-1.381-1.693.558-1.774.461-1.501c.997-1.541 1.495-2.451 1.495-2.73 0-.279.814-.654 2.443-1.125l.619-1.707v-1.534l1.933-2.164.293-1.862.861-1.383.927-1.154 1.21-3.28 2.316-2.71.44-1.384.752-2.197 1.56-.922-.792-1.809-1.52.75-2.756-.75-2.998.364-3.754.387-1.534-1.354-1.956-2.034.823-1.3v-2.219l.462-2.756 1.268-1.162 3.13-.728-.665-1.841 1.447-1.51 1.278 1.04.662-1.58v-1.279l1.837-.223v-1.47l1.244-2.432 1.513-.932 2.312-1.028-.27-1.405c1.628-.623 2.531-.934 2.712-.934.18 0 .539-.511 1.074-1.535h2.549l2.264.339 1.266-1.108 1.196 1.108 1.281 1.196.493-2.02h1.906l1.641 2.554 2.231-.534.82-1.196 1.76-1.108-.272 2.304v1.538l1.083 2.487.97 1.359 1.319-1.359-1.624-2.158 1.624-1.333 2.276-1.146H231.278v-1.408l2.339.824 3.778-2.014 1.655-.653 1.373-.912 2.778-.815 1.329-1.08 2.89-.812h3.03l2.198-.848 1.567 1.66.829-1.66v-1.578h2.049l.706 1.209 2.622-.588 2.76.588-1.362-.878-1.831-1.327-1.572-.792-2.136-.724-2.399-.76-1.87-.63 2.204-.301 2.065.57 1.52.743 1.165-1.012.374-1.356 2.065.655h2.425l-2.425 1.332 2.425 1.983 3.135 1.002-1.11-1.502.704-1.846h2.275l-.786 1.846 2.092.792.764-1.516.842-1.122h2.603l.767 1.846-2.706 1.502 1.323.907 1.383-1.322 1.667 1.032h2.278l-.542-2.12 2.106.793.324 1.327 1.151 2.095c.42-.811.63-1.413.63-1.805 0-.392.76-.392 2.28 0l.815-1.322 1.988-.295 2.395.295.358 1.322-2.238.588-2.503 1.217-.814 1.892 1.445-1.08 2.627-.812h2.2l-1.773 1.651 1.773-.478 1.703-.627 2.102-.906.364 1.533-1.24 1.178-1.946 1.268 1.946.653 2.34-.653 1.732.653v3.744h-2.832l-1.878-1.418v1.818l1.878 3.365 4.47.843v1.59l-1.638.909-2.832-1.582 2.832 3.645 3.827 3.582 3.28 1.9 1.239 4.587v3.108l2.676 3.95 2.035 3.433-1.132 1.09v1.364l-.903 3.579-2.676 1.966-2.66 1.636-5.686-2.047-4.71-5.134-2.29-3.394-1.076-1.012v-2.107l-3.752-2.889 1.357 3.514v7.661l-1.357 1.278-1.064 1.517v3.257l-1.632 3.788 2.696 3.714v2.312l1.357 2.669h2.395l1.075-1.82v-3.16h-2.2V198.338l2.2-.786 2.291.786 1.878 2.455v3.855l4.47 1.931v-3.44l2.19-.803v-5.996h4.518l3.58-2.503 2.644 2.503 1.972 1.998 1.615-1.998 1.697-2.15v-4.834l1.964-2.347 1.619-2.454v-1.952l-.713-2.107 2.928.625 2.49 1.798.838 1.636-.837 4.227-3.992.574-1.427 1.232.713 1.555v2.047l1.539 2.565 5.66-1.367v-3.245h2.093l3.014-2.083 3.613-1.008 2.773-.27 2.872-1.073 1.511 1.647-.57-2.347c.906-.65 1.635-.976 2.188-.976h2.462v3.323h-2.462v1.232l2.462.989h1.862l.928-1.517h7.009l1.818-1.278 1.235-1.073h1.922v4.845l1.997-.411.554-1.555 3.49-1.232-1.082-2.347-1.319-1.364 1.32-2.03 1.931-.696h2.488l3.313.696 2.168 2.418 2.803 1.676 2.088 1.343 4.179 3.09 1.545 2.048 1.863 1.198v-1.862l1.621-1.95-2.206-1.516-.582-3.05-2.241-1.365-2.001-1.09.881-1.952v-2.107l1.12-2.412v-1.772l-2.001-.262.881-3.519 4.528-3.918v-5.898l1-2.716c1.347.234 2.131.351 2.354.351h2.806l2.786.494.317 2.537v2.324l-1.282 3.506v2.223l2.258 2.63v4.252l-.542 2.805.936 1.482-.394 3.43.394 3.019 1.284 1.008 1.803 2.494-.485 1.636.485 2.15-.485 1.998-1.318 1.55-.977 2.448-1.677 2.312v1.931l-3.103 1.344-1.409-1.344-1.731-1.082 1.223 2.426-2.622-.606.823 1.35 1.8.517h3.204l1.815.913h2.12l.865-3.057 1.913-.46.624-1.476 1.066-1.221.482-2.469v-1.525l1.941-.803v-2.331l-1.26-1.367-.507-1.55.507-3.25.6-1.232 2.056-.304 2.882.304 1.323 1.232.694 1.555v2.691l.13 2.718 1.041 1.07v1.267l2.765.904-1.494-1.707h2.305l2.197.803-.705-1.551-1.926-.786h-2.457l-.988-1.212.672-1.506.902-2.691-.586-3.36-1.856-1.074-2.017-.7-1.79-.976h-2.136l-1.612.976h-2.853l-.44-1.364v-5.149l.86-1.445v-2.74l-1.959-.703-.705-3.208-1.284-1.432.75-1.56c.52-1.383.808-2.1.865-2.148.057-.048.834-.61 2.333-1.687l.561-1.578-.357-1.28-1.065-1.692-2.107-1.59 1.01-1.117c.963.906 1.476 1.359 1.538 1.359.063 0 .626.752 1.69 2.257l.482 2.493-.623 1.619-.265 1.841 1.062 1.141-.656 1.242 2.775 1.675c1.295.056 2.007.084 2.136.084h1.996l1.94.811-.13-1.677-1.88-.417c-1.593-.576-2.488-.9-2.684-.969-.197-.069-.993-.534-2.39-1.396l-.6-1.321 1.612-1.738 1.044 1.058 1.976.36.906-1.418-2.069-1.422 2.38-1.496 2.574.09 1.966.889 2.11 2.324c.738.146 1.736.218 2.993.218.144 0 .6-.803 2.322-.603l-.362 2.257-1.36 1.9 1.11 1.684.985 1.934.298-1.934 1.585 1.1-.537 2.193-.693 1.154.172 1.564 1.682 1.144 1.629 1.122 2.635 1.058 1.303-1.445 1.917-.967-1.917-.35-1.303 1.317-2.735-1.444-1.877-1.557.757-1.596.502-1.534c-.448-.895-.672-1.39-.672-1.486 0-.095-.64-1.035-1.921-2.82.115-1.815.172-2.784.172-2.91 0-.125-.381-.515-1.144-1.17l-2.467-2.214-3.271-1.476-2.305-2.254-.902-1.96-.369-1.805v-1.73s.892-.302 1.87-1.108l3.903-.906 2.146-.653 2.034-1.727 1.869-.24 1.057 1.055 1.307-1.895-1.979-1.172-2.093-1.445.344-1.322-1.732-1.087 2.081-.32-1.346-1.526 2.159-1.839v-1.436l.929-1.074.812-1.213c.592-1.025 1.014-1.606 1.265-1.74.252-.134.94-.338 2.064-.612l1.198-.959 1.564-1.2-1.564-.9.718-1.252s1.418 0 2.577-.776l1.53-1.598 1.394 1.75 1.454-.8c.208-.768.312-1.198.312-1.29 0-.092.526-.44 1.579-1.045l2.24.57-.863-1.415-1.922-1.454 2.785-.881 2.17-.61-2.17-.376-1.712-1.05c-.445-.73-.668-1.164-.668-1.301 0-.206-.559-2.2-.559-2.2l-.364-1.532c.516-1.122.774-1.752.774-1.89 0-.138.92-.552 2.762-1.243l2.825.731-.7 2.234 2.06-1.193 2.152.478v1.477l1.408 1.294 1.19-1.5-.45-1.431 3.556-2.364 2.038-.57 1.612 1.575h2.608l1.527.719.893 1.515-2.42.168 1.673.81 2.221-.216.88 1.294.615 1.44.174 1.402-.636 1.58v1.966l-.614 2.132.22 1.226v3.906l-.954 2.18.587 1.773-.587 2.126.587 1.58-.587 1.41-.967 1.624v1.702l.442 1.646 2.1-5.413 1.422-.968-1.013-1.581 1.013-1.49.696-2.076 2.176-1.753-.701-1.984-2.69-.308.519-1.425 2.17-.534 2.7-.905v-1.406l1.284 1.406 1.463 1.44 2.404 1.424-.849-1.425-.598-1.44v-2.102l1.447-2.19 2.241-.541 2.65-.992.626 1.533h2.53v-1.533h2.163l1.534-.76 2.049-2.25h2.388l3.385-2.061-2.242.563-2.663-.563-1.83-.795-1.857-1.135 1.856-2.662 2.63-2.207h1.864l2.242 2.207v2.662l1.895 1.135 2.345 1.358h2.136v-1.358h-2.136l-1.414-2.055h7.534l2.45.92 5.373-.92-.679-1.172-1.77-.57-1.596-1.27-1.329-.937-1.772-1.674v-1.389l2.523 1.389h2.97v-2.348l.974-1.878 3.134-3.123-3.134.942v-1.857l1.695-1.386 3.015-.843-2.123-1.676-3.56-2.23-1.378 2.23-1.015-2.23v-1.866l-2.136-2.133 1.558-1.847 1.593-2.763 2.351-2.91 1.695-2.202v-1.83l1.439-1.299h2.264l1.296 1.299 1.75-2.392h3.44l2.379-1.46v-1.778l-2.38-2.684v-5.708l2.38-2.769h4.276l2.58 1.505v-3.333l1.887-1.957-1.887-2.33V47.46l-2.58-1.897-2.558-2.276 1.486-1.962 1.072 1.962 4.467-1.962V39.47l-3.11-1.671-2.429 1.671L534.6 37.8l-1.718-2.015v-5.49l-2.38-.655V22.687l2.38-5.729 1.718-1.14V12.37l2.558-2.429h2.58V7.365h-2.58l-1.072 1.373-1.486-2.453v-1.4l-1.718-1.327 1.718-3.05h2.558l2.58 1.084 1.887 1.966h2.138l1.944 1.326 1.184-1.326 4.04 1.326v3.854l-1.752 1.203v2.429l1.751 2.182-1.751 1.267h-2.288l2.288 2.908h4.727l3.401 2.574 3.022 6.024 1.65 2.315v-2.315l1.376-2.31h2.505v-2.328h5.434l2.205 1.027v3.611l2.42 2.315 2.457.655 1.765 3.978 5.296 3.527 4.902 5.487 3.028 2.276 2.88 1.896v1.82l-1.083 2.273 1.083 1.883 1.061 2.33 2.973 1.957 2.429 1.828-2.429-.599-2.16.6 2.16 2.159 3.002 2.498h-1.886l2.485 3.819 1.762 1.284.93 1.4 2.382.916 1.808 2.322 2.517 2.392 3.268-.66.663-1.732 2.252 1.093 2.05 1.299 2.116-.66 2.756.66-1.277 1.83 1.971 2.202 6.065 2.91 2.229 1.426.646 2.255 1.921 2.383.79 2.545 3.245 2.23 2.305.638v2.665l2.515 2.459 3.187 2.181 2.443 1.878 2.48 4.958 2.051 1.27v2.663l-2.05-.92-2.48-1.172-2.444-1.84h-3.187l-1.535-.937-3.285-1.035-3.245-.64-2.711-1.388-2.875-.96-2.605-1.877-3.46-2.181-1.971-1.857-2.647-3.267-2.998-1.5-2.252-3.913-1.395-3.3-3.64-3.928-2.394-1.746-2.176-2.202-1.963-3.129-3.703-3.415-2.302-2.316-.889-2.22-2.503-2.174-1.997-.709-2.364-1.89-4.535-1.263-1.914-1.505v1.505l.836 2.474 2.5 1.388h2.256l2.338.707-1.481 1.466 2.364 2.22.914 1.4 2.144 1.78.813 3.192-1.874-.64-1.997-1.093v-1.46h-2.364l.706 1.46v1.733l.775 2.489v2.202l.883 1.746.914 1.837 1.083 1.36 2.503 1.648 1.531 2.383 3.601 4.775 1.762 1.676 1.963-1.038v-1.5l1.35.862.826 3.905.981 1.857 1.413 4.059v1.517h-2.394v-1.517l-.827-1.13-2.382 1.13v2.348l-2.049 1.674 1.12 2.777.929 1.172V119.076l1.033 1.751-1.963.54-1.119 2.191v2.103l-.643 3.515.643 2.454v1.564l2.049 2.942 1.033 1.93 1.35 2.416 1.807 1.97v1.646l1.413 1.495 1.104 5.489v2.326l2.536 1.818.732 3.989 1.763 3.501v2.99l1.802 1.872v3.234l2.348 1.72 1.168-1.72 1.479-1.6 1.277 1.6h2.425v-1.6l1.73 2.732 1.073-1.131.842-2.614v-1.57l-2.513-2.094v-1.819l1.67-.633.843-1.732h1.865l1.053-1.136 2.567 1.136 1.56 1.732 3.372 1.465 2.388 1.573 1.535 2.457 1.807 2.691 1.97 2.827 3.827 3.217 2.014 2.004 3.202 2.805 2.084 2.494.733 2.03 1.025 3.407.348 1.937 1.707 2.537 1.294 3.578.519 1.982 1.641 2.328 1.192 1.725 1.01 2.358.404 3.687 1.243 2.702 1.186 3.712.865 1.998v2.046l1.4 2.45 1.345 3.779V237.144l-1.345 1.178-3.451 2.537v2.703l1.186 3.822v4.515l-.403-.166zM316.44 367.553v-1.32l-1.615-2.745-1.972-.723h-2.645l-.903-1.62v-1.524l.903-1.336v-1.895l-.903-2.323v-1.693l-2.676-.576-2.66.576-1.859-1.5-2.189-1.055-4.47 1.056-1.878.923-2.29 2.269h-3.471l-1.357 2.323H281.652l-2.592-1.174-.542 1.845-.699 1.224-2.248.768-1.223 3.712-.984 1.295 2.207 2.743v4.445l-2.207 2.528 2.207 2.87v2.481l.823 1.604.84 1.444 1.826 3.15h-.435l.622 2.152.894 1.877.41 3.471 1.333 2.36 2.209.406.736 1.152v1.473h-2.325l-1.954.497-.794 1.515-1.14 1.046-.304 2.065-.808.963-1.737.565-.846 1.715-1.734 2.447.52 1.169.417 1.527v1.743l-.937 1.042v1.423l.52 1.616 2.858 1.375 2.682.905.894 1.671 1.325 2.118 2.045 1.687 3.77 2.285 3.522 1.165 3.034-.79 2.618-.375 3.127.655 2.001.857 1.483-.857v-.965l-.626-.853-.402-1.822-.455-2.4v-2.376l.455-2 .402-1.896 1.912-.945.275-1.52-1.561-1.436-2.144-.93v-1.494l1.813-1.14v-1.448l-.295-1.327-1.203-.826-1.655-1.528v-1.442l.937-2.013h5.36l1.621.65 2.99-.306 1.044-1.515-.718-1.04-1.616-1.53-.934-1.533-.27-2.484-.496-1.304-2.218-1.468-.93.745-1.286.723-.33 1.304-.296 2.04-2.273-.953-.585-1.95.937-1.164v-1.977l.718-1.697 1.203-1.897v-1.747h-2.273l-1.69-.46-.895-.985-.33-1.712-1.725.63-.643-1.32.98-.744-.98-1.895v-1.33l-1.047-2.059-.917-1.15-1.213-1.736v-1.081l.702-1.132 1.428.781 2.026.953 1.389-.953.33-.78-1.719-1.716 1.389-2.02 3.267-.702 3.176 1.51 1.587 1.212 1.682.661 2.236 1.054-.934.781-1.302.953v2.806l1.832-1.016.404-1.311.932-1.081 5.018-.35 1.29-1.036zM122.38 172.163l.566-.802 1.1.802 1.693.56h1.408l2.096-.56 1.342 1.13v1.675l1.146 1.408h2.003v-1.408l-.875-.994v-2.613l-1.128-1.622v-2.04l1.128-1.234h1.567l.629.678h1.627l1.069-.678v-1.133l1.185-1.902 1.93-1.791 1.01.546.616 1.82v1.513l1.347.947 1.446-1.133 1.127-1.902 1.683-1.791.339-.815 2.7-.972v-1.16l-1.83-1.593v-2.648l1.83-1.383h1.567l1.436-1.12 1.594-2.47-1.594-.79.55-.771 1.044-1.345H158.76v-1.513h-2.071v-1.166H158.76l1.476-.692v-1.753l1.579-1.828 1.069-.537v1.276l-1.07 1.089 1.742.58.654-.58 2.288-1.828h2.274l1.157-.537 2.281.537v1.828l.814 1.753.785 1.858H169.356v-1.166l-2.075 1.166h-2.29l1.507 1.513 2.274 2.116v3.801l-2.274 1.276H163.556c-.632 0-1.212.229-1.741.687-.53.458-1.055.458-1.579 0h-1.476l-.822 1.08.822 1.567v1.592l-.822 2.133-1.25 2.606h-.958l-1.044 1.902-1.986 1.133v3.933l-1.568 2.894v1.676h-2.699l-1.315 3.424h-1.834v2.517h1.127V186.105l-1.721 1.669h-5.755v3.113l-1.185 1.065-3.325-1.065-1.567-1.778v-3.004h-2.274v-1.146l1.146-1.19-1.146-1.482h-1.342V178.392l-1.192-.865h-.904l-1.408.865v-3.424l-1.693-.994h-1.666v-1.811zm4.097-20.236l.945-1.683 1.225-.677-.877-.407v-1.114l.877-.971h3.644l1.2-.633 1.857-.33 1.012-1.085V142.3l.901-.485h1.545s.357-.26 1.07-.783l.618-1.309h1.589v.999l-.727 1.093.727 1.427.87-.588h2.149l2.585-.354 1.198 1.377 1.014.773-1.014.578.741 1.085.273.963.554.97-.827 1.115-.741 1.393-1.528 1.717-.616 1.64h-2.84l-.948-1.14-.87 1.14-1.59 1.76-.618 1.342-1.856.63-1.349.922-1.322.848h-1.858l-.718-1.161v-1.239l-1.754-1.14h-1.358l-1.89-1.962-.968-.861-.325-1.122zm48.658 53.58l.663-.673.71.673.873.731.912 1.167-.362 1.065h-1.423l-.71-1.065v-.72l-.328-.447-.335-.73zm3.188-2.626l.392-.33.975-1.007.698-1.15h1.692l1.15 1.748 1.041-.598.48.598-.48 1.612-.704.746-2 .572-1.18 1.047h-1.672v-1.047l-.392-1.318v-.873zm41.752 10.951l.547-.98.688.227 1.104.603.864.15 1.025.812.45.667-1.035.506s-.708.299-.708.563c0 .176-.445.088-1.335-.264l-.669-.663-.93-.455v-1.166zm3.825-2.76l.33-.084.732.24 1.062.285v.78l-.705.252-.979.14-.44-.687v-.925zm-19.562.631h.356l.498-.601 1.067-.798.147-.738c.587-.312 1.03-.56 1.327-.743.447-.275 1.464-.304 1.676-.304.141 0 .596.287 1.363.862h-1.14l-1.281.532-.618 1.189-1.327.601-1.214.96h-1.008l.154-.96zm-7.29-1.02l4.353-1.438-1.51.8-1.337.775-.533.842-.974.174v-1.153zm25.942-13.374l.85-1.152.44.077.434.246.41.382.175.447v.804l-.532.323-.667.081c-.34-.312-.53-.469-.573-.469-.041 0-.15-.078-.327-.236l-.21-.503zm-70.41-51.625l.875-.596h.866l.244.406-.169.604-.706.413-.94-.12-.17-.355v-.352zm7.494-8.584l3.164-2.087.625.488-.89.496-1.06.668-.79.718-.856.429-.193-.268v-.444zm5.16-1.526h.65v-.616l.24-.502.57-.094.524.313.746.283.93-.145.31.677-.166.606h-.88l-1.23.129-.738.687-.957-.068v-1.27zm169.072 45.83l.49-1.51 1.677-.704 1.305-.212.2.408 1.553.96.828 1.637-1.136.195-.462 1.44h-1.63l-1.03.483h-1.305l-.49-1.493v-1.205zm29.27-2.664l.67.23-.214-1.14.505-.62.94-.597.497 1.408 1.173.719 1.225 2.435v1.28l-.632.647h-1.345l-.24-.953v-.77l-.936-.204-1.187-.566-.456-.924v-.945zm29.7-21.895l.737-.678.737-.07.667.374 1.26.895.644 1.555-.952-.537-.773.24-1.006.839-.34-.366-.872-.473-.101-.725v-1.054zm-37.222 17.437l-.644.199-.57-.831-1.706-.887-1.043-.84.294-.836 1.083-.207v-.877l-1.377-1.44-.286-1.551-.926-.713-1.412.713-.816-.448v-2.468c0-.16.11-.552.329-1.174l.622-1.162.835.188h1.654l.504-.873.539-.926 1.705-.862-.821-.66-1.249-1.185 2.373-.636.268-1.195.306-.801h1.762l1.01-.858.907-.518.252-.643-1.596-1.091v-.712l.927-.176 1.32-1.632 1.182.264 1.169-.456-.428-1.121 1.576-.4-.17-1.145.644-.321h.349l1.333-.474-.764-1.033-.728-1.187-.19-1.021.918-.455.913 1.148.204-.924 2.297-.865-.197-.452 1.159-1.259c.142-.472.288-.754.438-.845.224-.137 1.667-.905 1.667-.905h2.11l.765-1.131.517.811 1.042-.546v-.847l.677-.553 1.08.22.863.915.608-.582 1.14-.334 1.16.178.294-.61 1.36-.866 1.51-.206v-1.206l1.167-1.062 1.412-.855 1.316-.476 1.18.14 1.042 1.53-.478.723-.423.84.134 2.204-1.958.582-2.511.811-1.882 1.362-3.323 1.068-2.274.563-1.852 1.429-1.981 1.743-.586.272v1.368l-1.97 1.331-1.064.147-.967.775-.89 1.713-.482 1.808-.676-.37-.143-1.174h-1.485l.39.966.522 1.29-.523.347-.389 1.387-1.83-.455.917 1.83h-.918l-.644 1.29-1.726 1.184v1.343h-.98l-.622 1.383-1.107 1.066-.214 2.108-.656 1.914v1.202l.656 3.176.417 1.814 1.526 2.102.98 1.09-.698.83-1.248-.434-1.467-.158-1.382-1.069h-.818l-.234.632zm78.894-69.566l-.372-.91.372-1.065h.865l.657.461v1.514l1.051 1.827.618-.336-.618-1.718v-1.475c0-.11.275-.11.825 0 .746.744 1.175 1.115 1.287 1.115h.636l1.408.149 1.35 1.483v1.245l-.945 1.521-.405 1.19h-1.91l-.52 1.365-.538 1.28-.57.971-1.015-.265v-1.362l-.654-1.99-.428-1.75-.526-1.423-.568-.782v-1.045zm9.893.873l1.027.797.717-.147.975-.25.769.74-.399.436-1.812.401-1.277-.401v-1.576zm-26.214-7.848l1.355-.456V95.23h1.416l.957 1.434 2.426.621-.517 1.231 1.03 2.092-1.77 1.189-1.6 1.678-1.942-.801-.616-1.161-.739-1.532v-2.24zm.808 7.007l3.258.47-.8 1.447-1.269.92-1.19-.92v-1.917zm4.616-1.313l2.583-2.68.915 1.448.522 1.232.482-.964v-1.716l1.7.375 1.084 2.75 1.267 1.981 1.64 2.2-1.64 1.628-1.967-1.629-1.69.548h-2.313l-1.116-1.33h-1.467v-3.843zm64.411-22.22v-.429h1.136l1.128-.503h1.762v-1.118l-2.172-.573V76.79h.898l1.274-.644c.572-.627.858-1.043.858-1.25 0-.309 1.584-1.161 2.001-1.161.278 0 .866.235 1.763.705l1.866 1.99-1.38 1.185h-2.249l-1.162-1.185-.84.36.667 1.482c.521.213.966.32 1.335.32h2.813l1.747-.977-.392 2.129h-.916v2.548l-.439.94 1.355.792-.916 1.781h-2.18l-1.072 1.027h-1.335c-1.932-1.612-3.027-2.418-3.286-2.418-.258 0-.839-.394-1.74-1.183l-.524-2.015zm17.985 1.926l1.895-.835h2.083l1.407.835-.469.597-1.272 1.577-.389 1.493-1.36.682-1.233-1.615-.662-1.222V83.14zm-9.64-11.107l1.824-.28-1.023-1.638 1.023-.577 1.41-.393.798-2h1.63l.502 1.532.303 1.438-1.302 1.007-1.492.911h-.512l-1.337 1.422-1.824-1.422zm136.705 79.302l1.87-.72 1.847 1.476 2.462 1.16 3.68 1.632 3.223 2.98 2.077 1.838h1.916l3.174 2.704 4.028.763 4.284 2.227v1.316l-1.028.842v1.022l1.028 2.946 2.264 1.968 1.893 3.09 1.636 1.29 1.478 1.215 1.28-1.215 2.192 1.215h.87l2.67 1.59h-1.563l-1.107.96-.87 1.189 1.977 1.55v1.424l1.563 1.725h-1.563l-2.782-2.496v-1.644h-1.387l-2.758-2.708-2.403-2.805-2.627-1.29-1.791-3.09-3.256-1.968-1.782-1.513-4.306-3.297-1.114-2.531h-2.69l-3.061-2.404h-2.145l-1.488-2.075-.817-1.837h-2.22v-2.981l-1.578-1.631-3.076-1.917zm-10.402 12.635h1.825v1.369l-1 .89-.825-.89v-1.369zm55.476 26.527l1.513-.5.888-.565.97.565 2.103.346 1.428-.604 1.188-1.055c.063-1.07.139-1.605.23-1.605.09 0 .495.267 1.216.8.21-.42.315-.687.315-.8V183.66l1.33 1.018c1.229.683 1.911 1.025 2.049 1.025.137 0 .497-.057 1.08-.172l-.28 1.72.53 1.139-.53 1.351-.234 2.73.764 2.185.199 1.534.248 1.631 2.113 1.778-.141 1.559c-.652.211-.977.394-.977.548 0 .154-.332.43-.995.828l-1.415.204-.568.623-.414 1.03.62.794-.358 1.284.358 1.442-.809.296-.747.23.246 1.652.952.484H694.099v1.989l.67 1.12v2.072c-.943-.818-1.66-1.508-2.153-2.072-.493-.563-1.196-.936-2.11-1.12l-1.044-1.99v-1.543l-1.34-1.98V203.518v-2.044l-2.138-1.706-1.494-2.489-2.374-3.156-2.401-1.125-1.13-1.124v-1.376zm17.675 20.834h.541l.783.598 1.007.598.665 1.194h1.363l1.616.87 1.388 1.266.918 1.082 1.16 1.154.721 1.156v1.804l2.59 2.795-.96.693v.699l.55 1.334.773 1.295v.871l1.338.714.9.856 1.943 2.166v1.464l1.804 1.375.511 1.253.41.973 1.153.942.589 1.764.702 2.187.435 3.325-.435.627-.996-.627v-1.239l-.295-1.28-.427-1.546-1.136 1.547.735 2.518.828 1.711v1.837l.906 1.348-.317 1.632-1.417-1.318.401 3.325.427 1.967-1.152 3.964h-2.205v1.461l.933 1.847h1.272v5.541l1.152 2.49-.427 2.157h-1.136l-.86.933-.934-1.21-1.065-1.88.544-1.63-.855-1.5-.54 1.5-1.006.42-.442 2.374-.45 2.281-.888 2.46-.773 1.793v2.83l-1.236 2.215v2.691l-.408 2.017-.86 1.307-.797.88-.43.87 1.227 1.991.86-1.599 1.094-.947.96 1.73.738.35 1.862 1.466v4.245l1.09 2.396.31 3.51c.362 1.345.544 2.162.544 2.45 0 .29-.182.579-.544.869l-1.857.586v-1.454l-1.405-1.52-1.148-.321-.55-.269-.304-1.683-1.326.974-1.12-.974-1.037-2.168v-2.809l-.642-1.083v-1.37l.918-1.724v-1.471l-.918-2.629.642-1.603.276-3.705V279.918c.22-1.05.33-1.67.33-1.86v-2.006l.83-1.989 1.257-2.185.408-1.943v-1.5l1.236-1.65v-2.397l1.148.393.514-.724-.514-3.502-.375-2.062v-1.024l-1.323-2.732c-.203-.788-.304-1.294-.304-1.516 0-.222-.442-.663-1.326-1.322l-1.12-1.874v-2.554l1.12.594v1.243l.536.717.79.945.854-.314v-1.062l.41-1.529-.41-2.305v-1.58l-.854-2.159v-4.884l-.79-1.821-.536-2.37-1.12-2.95-1.679-2.802-1.388-2.652h-1.194l-1.163-1.957-.313-1.146-1.457-.385-.524-1.804-.37-1.856-.413-.454v-1.808l1.307.418.483-.958-.483-1.423h-.9l-.948.926-.423-.926.423-1.837zm13.587 71.8l.748-2.086.271-1.299v-2.344l.368-1.502 1.468-.576h1.059v2.078l.567 2.344v1.607c0 .214-.337.428-1.012.644h-.614l-.352 1.934v1.707l.966 1.583.445 1.502-.445 1.386-.966 1.2-1.755-1.498v-1.088l-.748-1.913-.762-1.172.762-1.707v-.8zM195.202 83.859v-1.756l.797-1.005.7-2.21 1.164-.499v-4.227l.407-1.88.496 1.88 1.844.702 1.005-.702 1.068-.727 1.534-1.153-.511-2.148c.607-1.191 1.2-1.191 1.78 0 .58 1.192.58 2.126 0 2.803l1.024-1.059h1.418l.578-.58.424-1.537-.424-1.786.91-1.56 1.056.692h2.371l-.946 1.24 1.427.75 1.833-1.54v1.54l-2.89 2.2-1.795.985h-1.056l-1.488 1.153 1.002.727 1.542.27h2.371l-1.948.737v1.592h1.948v1.628h-1.948l-1.204 2.247h.78l1.426.462c1.91.852 2.996 1.278 3.26 1.278.263 0 .468.362.613 1.086l-1.377 1.26v2.072l-1.55 1.48-1.404-.423-.544 1.173v2.287h-2.67l-2.216 2.194v-1.313l-3.326.367-1.068-.643c-.272-.494-.606-1.222-1.005-2.183-.398-.96-1.012-.96-1.844 0l-.903-1.03v-1.2l-1.164-.709-1.157-1.201-.34-1.734zm-86.727 230.506l-.272-1.796-.625-1.043v-2.223l-.98-1.56-.298-1.785v-.534l.299-.64.98-1.19 1.379 1.19h.598l.844 1.174-.3 1.095.754 1.865.526 1.613 1.53.288.628 1.086h1.39l1.95 1.439.643 1.021-1.347 1.103h-1.245v1.268l-1.391.34v1.57l-.628 1.876-1.53 1.022-.98-1.022v-1.126l-.844-.75v-3.178l-1.08-1.103zm-8.837-34.967l1.655-.54.493-.632.34-.909 1.342-1.495.694-1.146v-2.748l.927-1.51.977.659v1.448H109.346l.438 1.163v1.29l-.789.844v1.495l-.437.909-.577 1.172h-1.419v1.426l-.496 1.036-.977.782h-1.268v1.27l-.764 1.214-.931-.83-.833-.987h-2.029v-1.449l.374-1.036v-1.426zm10.622-11.602l1.129-1.883v-.98l.655-1.221h2.052l.869.864h1.707v.808l-3.29 4.415-1.64.977h-1.482l-.845-.672.845-.305v-2.003zm-23.664-12.65l1.094-.873-.57-.45v-1.67l2.284 1.67v1.607l.53 1.326-1.125.952c-.7-.185-1.165-.337-1.395-.454-.23-.118-.502-.467-.818-1.047v-1.061zm52.598 107.165l1.045-1.744 1.767 1.744v1.049l6.594 5.739v1.13l1.904 1.594-.78 1.638-7.027-4.91v-1.812l-1.858-.904v-1.424l-1.645-2.1zm38.827 30.82h4.462l1.955.886 2.507 3v1.585l-3.136-.786h-3.536l-2.252-2.436v-2.249zm480.675-276.775h.773l1.95 2.027.722 2.027h-1.624v-1.73l-1.048-.901-.773-1.423zm-144.682-97.59l1.69-1.595 2.644 1.595 1.29 2.062 1.831 2.061h-3.121l-2.644-1.565-1.69-2.558z" id="c"/>
    <filter x="-10.5%" y="-16.8%" width="121%" height="133.6%" filterUnits="objectBoundingBox" id="d">
      <feMorphology radius=".5" operator="dilate" in="SourceAlpha" result="shadowSpreadOuter1"/>
      <feOffset in="shadowSpreadOuter1" result="shadowOffsetOuter1"/>
      <feGaussianBlur stdDeviation="25" in="shadowOffsetOuter1" result="shadowBlurOuter1"/>
      <feComposite in="shadowBlurOuter1" in2="SourceAlpha" operator="out" result="shadowBlurOuter1"/>
      <feColorMatrix values="0 0 0 0 0.28627451 0 0 0 0 0.635294118 0 0 0 0 0.792156863 0 0 0 0.302111639 0" in="shadowBlurOuter1"/>
    </filter>
    <linearGradient x1="50%" y1="100%" x2="50%" y2="0%" id="f">
      <stop stop-color="#FFF" offset="0%"/>
      <stop stop-color="#FFF" stop-opacity=".8" offset="52.353%"/>
      <stop stop-color="#FFF" stop-opacity="0" offset="100%"/>
    </linearGradient>
    <filter x="-13.9%" y="-30.7%" width="127.8%" height="161.4%" filterUnits="objectBoundingBox" id="g">
      <feGaussianBlur stdDeviation="2" in="SourceGraphic"/>
    </filter>
    <path d="M.817 128.865c19.33-5.008 34.829 1.72 46.495 20.184" id="h"/>
    <filter x="-2.1%" y="-6%" width="104.2%" height="112%" filterUnits="objectBoundingBox" id="i">
      <feGaussianBlur stdDeviation="2" in="SourceGraphic"/>
    </filter>
    <path d="M47.21 149.17C106.983 58.374 209.686 22.398 355.32 41.242" id="j"/>
    <linearGradient x1="50%" y1="0%" x2="50%" y2="100%" id="m">
      <stop stop-color="#F1F1F1" offset="0%"/>
      <stop stop-color="#FFF" offset="100%"/>
    </linearGradient>
    <circle id="l" cx="3.5" cy="133.16" r="3.5"/>
    <filter x="-21.4%" y="-21.4%" width="142.9%" height="142.9%" filterUnits="objectBoundingBox" id="k">
      <feOffset in="SourceAlpha" result="shadowOffsetOuter1"/>
      <feGaussianBlur stdDeviation=".5" in="shadowOffsetOuter1" result="shadowBlurOuter1"/>
      <feComposite in="shadowBlurOuter1" in2="SourceAlpha" operator="out" result="shadowBlurOuter1"/>
      <feColorMatrix values="0 0 0 0 0 0 0 0 0 0 0 0 0 0 0 0 0 0 0.5 0" in="shadowBlurOuter1"/>
    </filter>
    <circle id="o" cx="50.309" cy="152.734" r="3.5"/>
    <filter x="-21.4%" y="-21.4%" width="142.9%" height="142.9%" filterUnits="objectBoundingBox" id="n">
      <feOffset in="SourceAlpha" result="shadowOffsetOuter1"/>
      <feGaussianBlur stdDeviation=".5" in="shadowOffsetOuter1" result="shadowBlurOuter1"/>
      <feComposite in="shadowBlurOuter1" in2="SourceAlpha" operator="out" result="shadowBlurOuter1"/>
      <feColorMatrix values="0 0 0 0 0 0 0 0 0 0 0 0 0 0 0 0 0 0 0.5 0" in="shadowBlurOuter1"/>
    </filter>
    <circle id="q" cx="358.245" cy="45.649" r="3.5"/>
    <filter x="-21.4%" y="-21.4%" width="142.9%" height="142.9%" filterUnits="objectBoundingBox" id="p">
      <feOffset in="SourceAlpha" result="shadowOffsetOuter1"/>
      <feGaussianBlur stdDeviation=".5" in="shadowOffsetOuter1" result="shadowBlurOuter1"/>
      <feComposite in="shadowBlurOuter1" in2="SourceAlpha" operator="out" result="shadowBlurOuter1"/>
      <feColorMatrix values="0 0 0 0 0 0 0 0 0 0 0 0 0 0 0 0 0 0 0.5 0" in="shadowBlurOuter1"/>
    </filter>
    <circle id="s" cx="366.053" cy="3.5" r="3.5"/>
    <filter x="-21.4%" y="-21.4%" width="142.9%" height="142.9%" filterUnits="objectBoundingBox" id="r">
      <feOffset in="SourceAlpha" result="shadowOffsetOuter1"/>
      <feGaussianBlur stdDeviation=".5" in="shadowOffsetOuter1" result="shadowBlurOuter1"/>
      <feComposite in="shadowBlurOuter1" in2="SourceAlpha" operator="out" result="shadowBlurOuter1"/>
      <feColorMatrix values="0 0 0 0 0 0 0 0 0 0 0 0 0 0 0 0 0 0 0.5 0" in="shadowBlurOuter1"/>
    </filter>
    <filter x="-13.6%" y="-18.8%" width="127.3%" height="137.5%" filterUnits="objectBoundingBox" id="t">
      <feOffset in="SourceAlpha" result="shadowOffsetOuter1"/>
      <feGaussianBlur stdDeviation=".5" in="shadowOffsetOuter1" result="shadowBlurOuter1"/>
      <feColorMatrix values="0 0 0 0 0 0 0 0 0 0 0 0 0 0 0 0 0 0 0.4 0" in="shadowBlurOuter1" result="shadowMatrixOuter1"/>
      <feMerge>
        <feMergeNode in="shadowMatrixOuter1"/>
        <feMergeNode in="SourceGraphic"/>
      </feMerge>
    </filter>
    <filter x="-15.9%" y="-15.6%" width="131.8%" height="143.8%" filterUnits="objectBoundingBox" id="u">
      <feOffset dy=".5" in="SourceAlpha" result="shadowOffsetOuter1"/>
      <feGaussianBlur stdDeviation=".5" in="shadowOffsetOuter1" result="shadowBlurOuter1"/>
      <feColorMatrix values="0 0 0 0 0 0 0 0 0 0 0 0 0 0 0 0 0 0 0.4 0" in="shadowBlurOuter1" result="shadowMatrixOuter1"/>
      <feMerge>
        <feMergeNode in="shadowMatrixOuter1"/>
        <feMergeNode in="SourceGraphic"/>
      </feMerge>
    </filter>
    <path d="M313.936 2.773c2.08 0 3.383 1.421 3.383 3.702 0 2.285-1.298 3.706-3.383 3.706-2.09 0-3.394-1.421-3.394-3.706 0-2.286 1.323-3.702 3.394-3.702zm0 1.294c-1.143 0-1.885.933-1.885 2.408 0 1.47.727 2.412 1.885 2.412 1.147 0 1.88-.943 1.88-2.412 0-1.475-.733-2.408-1.88-2.408zM322.144 10h-1.475V7.407l-2.456-4.453h1.597l1.552 2.95h.088l1.548-2.95h1.597l-2.451 4.453V10zm11.118 0h-1.367V5.288h-.079l-1.792 4.307h-.981l-1.797-4.307h-.078V10h-1.367V2.954h1.738l1.948 4.736h.088l1.953-4.736h1.734V10zm5.136 0h-1.474V7.407l-2.456-4.453h1.596l1.553 2.95h.088l1.548-2.95h1.597l-2.452 4.453V10zm8.184 0l-.532-1.68h-2.476l-.542 1.68h-1.48L344 2.954h1.733L348.18 10h-1.597zm-1.807-5.581l-.883 2.764h1.845l-.874-2.764h-.088zm6.08 5.581h-1.475V2.954h1.474v3.14h.088l2.603-3.14h1.64l-2.568 3.09 2.75 3.956h-1.768l-2.046-2.95-.699.826V10zm8.7-7.227c2.08 0 3.384 1.421 3.384 3.702 0 2.285-1.298 3.706-3.383 3.706-2.09 0-3.394-1.421-3.394-3.706 0-2.286 1.323-3.702 3.394-3.702zm0 1.294c-1.142 0-1.884.933-1.884 2.408 0 1.47.727 2.412 1.885 2.412 1.147 0 1.88-.943 1.88-2.412 0-1.475-.733-2.408-1.88-2.408zM365.748 10h-1.411V2.954h1.23l3.243 4.39h.087v-4.39h1.412V10h-1.221l-3.252-4.41h-.088V10z" id="w"/>
    <filter x="-3.3%" y="-13.5%" width="106.7%" height="154%" filterUnits="objectBoundingBox" id="v">
      <feOffset dy="1" in="SourceAlpha" result="shadowOffsetOuter1"/>
      <feGaussianBlur stdDeviation=".5" in="shadowOffsetOuter1" result="shadowBlurOuter1"/>
      <feColorMatrix values="0 0 0 0 1 0 0 0 0 1 0 0 0 0 1 0 0 0 0.5 0" in="shadowBlurOuter1"/>
    </filter>
  </defs>
  <g fill="none" fill-rule="evenodd">
    <mask id="b" fill="#fff">
      <use xlink:href="#a"/>
    </mask>
    <g mask="url(#b)">
      <g transform="translate(40 25.532)">
        <mask id="e" fill="#fff">
          <use xlink:href="#c"/>
        </mask>
        <g fill-rule="nonzero">
          <use fill="#000" filter="url(#d)" xlink:href="#c"/>
          <use stroke="#DDE8EE" fill="#FFF" xlink:href="#c"/>
        </g>
        <g fill-rule="nonzero" stroke="#DDE8EE" mask="url(#e)">
          <path d="M203.797 229.818l.92.919v.838l.57 1.362.33 1.43h1.17l.645.808.444 1.39-.444 1.232-.644.408-.647.635-.855 1.221.55 1.554-.22 1.567v2.128l1.172.971.644.289.444.806h.517l1.135-.333H213.716v1.071h-.888v.693h1.58v-2.237l.935-1.26 1.61-1.063h4.349V242.16l1.555-.545v-1.554l-1.555-3.496v-1.39l-1.287-.809v-2.79h-2.194l-2.478-2.457-1.627-1.438-.888-1.635-2.161-.576h-1.686l-2.193-.564M223.127 240.851h2.181v1.761l2.202-.88 2.18-.88 1.26-2.373v-1.986l-1.26-1.546 1.26-1.219 1.833-1.279v-1.79l.902-.965.979-.708.863.708.86-1.913v-4.711l1.708-1.771 1.39-2.036v-1.36"/>
          <path d="M222.99 240.944h2.375v1.46h.668l1.475-.676 2.327 2.4v2.165l2.824 1.435h2.667l1.617 3.55-1.617 2.394v1.895h-2.667v7.103l2.667 2.761v2.493l-1.327 2.968h-1.773l-2.391-1.307-2.327 1.307v4.435l-1.15 1.767 2.252 1.45 1.225-1.45 2.39 1.45 3.1 1.276v5.691H234l-1.34 2.775 4.284 2.509v5.088l-1.617 2.077h2.975l1.379 2.387h4.568V306.005h.954l.886-.684 1.21 1.75.421 1.48.529.32h1.543l.654 1.267.889 1.317.512 1.04.752.544v1.725l-.752.654-2.622.286.567 1.023.654.707-.277.675h-1.92v1.719l.5 1.782-.5 1.408-1.475.942h-1.571l-1.495-.942h-5.406l-1.358 3.817M290.04 354.186l-4.78-5.724h3.317l-.928-2.105v-2.533l-.624-1.98-1.766-2.045-1.388-.746-1.362-.73v.73l-1.903-1.804.96-2.111v-1.093l-2.631-1.546 1.67-1.748.96-1.265.944-.952 1.362-.687-1.362-2.32 1.362-2.132 1.388-1.474 1.766-.668v-2.6h1.552v1.802l1.462 1.466v2.138l2.372 1.468 1.104-1.468V318.653h4.605v-2.143h5.682l1.584-2.88.865.634 2.082 1.455v.79h1.607l1.218-.79h2.856v2.234h3.711l4.687 6.106v2.072l1.163-2.736 4.164 4.452 4.567-3.788.993 1.468 2.605-1.468.988 2.072 1.723-1.296 2.984.692 1.765 3.959h2.775v1.87l3.374-2.822 2.124 2.217 4.347-1.265 1.479-3.355-7.198-5.676 5.719-2.502-1.577-2.939 1.577-2.467h4.562l-1.496-2.072h-1.587l-.615-1.4h1.652v-1.327l-2.516-.578.864-1.441-.864-1.056 3.066-.92.573.92h2.677l.968 1.056v-1.056l12.64-1.796 1.638-2.28h4.738l2.09-.963 2.518-.627h2.557v-2.024l2.694-.75v-1.409h4.911l1.727 2.16 1.265-1.296 1.768.545 1.62 3.4v3.244l-1.62.875 1.62.92h2.429v-.92l2.298.92v-1.795l1.413 2.852 1.626-1.056 2.353 1.056 1.823-1.056-1.823 3.075.623 1.326 2.485-1.326 1.519.696.819-1.274 3.022-1.441.865-1.977 6.69-4.118v2.187l-2.02 1.056 7.455 5.567 13.085 17.687 2.335-5.676h2.475v2.94h6.641v-1.474l3.797-2.256 3.782 2.256 1.902 2.584 3.69.33 2.06 3.699 4.107-.687 2-3.788v2.072l3.668 1.716h2.917l.62-3.342 3.603-1.11 1.938-1.474 1.266-2.256-1.266-1.712 2.424-1.443 9.836-6.787 1.506.578 1.753-1.387 1.124 1.387 4.555-2.019 3.421 3.345 3.766-.63 1.32-2.083 1.485.809 2.498-.809h2.075l1.976-1.744 1.294-.892.86-3.401-4.13-3.87v-5.3l1.086-5.449h4.055l1.201 1.477 2.05-1.477 7.816-1.043 3.231 4.638h2.877l1.84.931h1.788l2.915-2.404 2.578-3.777 5.54-3.415 3.853 1.12 1.779-1.12 5.333 1.855 8.633-4.701 3.195-4.142 2.633-4.09 2.403-9.627 5.291-1.002 1.774-2.785h1.804l2.918-1.268h2.02v-5.085l2.067-2.107-4.087-8.265v-4.376l-1.321-5.459-1.597-1.937-1.804 1.937-1.774-1.937v-5.667l1.774-3.006 3.4-4.558 3.341-2.31h2.068v-2.184h5.118l3.71 2.184h2.73l1.53 2.31 3.853 2.628h2.963v1.93h2.079l2.014 3.006 2.874-3.006h2.78v-1.93l4.728-2.628 1.804 2.628h1.624l2.478 1.93 2.808-4.558V207.06l1.466-2.229v2.229l3.42 1.078v2.386l1.92 4.135 3.064 4.938 2.197 3.748 1.683 5.142-3.88 1.713v4.25l2.197 3.146 4.625 3.304 1.753 4.709v4.628l2.34 2.107M486.56 328.007l-.694 2.25-1.873 1.672v2.929l-1.355 1.21-2.33 1.83v4.939l.676 2.923v2.953l-2.574 1.718h-9.604l-1.615 4.493-.937 6.336.937 3.196 1.615 2.264h-3.146l-1.858-.99-1.91.99h-2.087l-3.072 2.762-1.652 1.752 1.652 2.858 2.088 2.599.984 3.553 1.403 3.064-2.387 1.36 1.811.532-1.811 1.728v2.353l-.676 2.124v1.901l-3.064 2.456h-4.868v3.297h-1.783v3.431h-5.253l-2.812 1.791-1.617 3.647h-1.164l-2.3 1.168h-1.61v-1.168l-4.145 1.168-3.845 1.998-1.609 2.237v3.51h-1.48l1.48 3.705v3.364h4.083l2.838 3.332 1.223 3.346-1.223 2.712c-.065.016-.554.399-1.467 1.148-.914.75-2.195 1.221-3.845 1.416M245.442 213.536l2.55-1.565 2.968-.736 4.254-1.622 3.659-1.48 6.959-3.37 1.946-.973v-5.84l-.645-2.797 2.761-1.384.722-3.028 1.156-1.86-1.156-.953 1.156-1.135.54-.55.574-1.337 1.944-2.002h1.275l3.03-9.72 5.289-2.883v-4.477l-.903-1.204.903-1.978 2.596-1.532v-.984h1.571l1.819-.798h2.714v-1.09l1.848 1.09 1.477-1.757M235.88 356.69l1.425-.976 1.954.489 1.26 1.461 1.62 1.522 1.802 1.354 2.577 1.752 1.87.91 2.265 2.405 2.257 2.354 1.4 1.34-.812.745h2.24l2.242 1.228 1.961-1.228 1.882 3.13 2.148 2.055-1.174 1.174 1.174 1.934 2.3 2.472 2.264 2.583 3.018 3.607.694.904 5.915-3.483"/>
          <path d="M486.842 328.1l1.645 2.134v1.67H490l.664 1.216v1.231l2.941 1.96h8.911l2.267 2.166 2.427 2.685 2.211 1.708.671 2.96v6.746l1.663 1.602 13.298-3.536 8.087 2.863 3.23-.929v1.602l8.683 6.882 2.955-2.636 3.903-1.22 4.372-1.233 2.854-1.14 2.597-.653 4.59-4.523 13.998-.693 5.345-3.131V347h2.153l1.38-1.17 5.088-9.52 10.839-9.372 5.492-15.728-4.278-2.548-.61-5.958 7.6-3.561.74-6.927 4.104-4.689v-6.913l1.76-3.147-.791-2.046h.79l2.776-5.288 3.388-2.267-2.425-3.743h-4.53l-2.02-1.156-2.31 2.228v4.402h-3.049l-2.05 4.332-3.373-1.664-2.913-13.45M164.395 336.462l2.417-.697.925-1.81h1.347v-3.153l2.033-1 2.995 1.855 2.524 2.298 1.381.95"/>
          <path d="M169.171 330.76l-1.462-1.097v3.373l-2.579-1.687-2.687-2.417-.611-3.325-3.747-1.79-3.497-1.623h-1.527l-2.04-1.356h-3.063l-2.516-2.843-.685 2.124-3.128 2.075h-4.102M145.07 317.45v-2.876l.7-1.632 1.495-1.686h1.073l1.636-1.274.585 1.274h1.444l1.658 1.686 1.398.774 1.164 1.481v5.354l-1.921 1.432M143.499 305.9l.534-1.557H147.854V310.938M148.18 304.586v-1.389l2.5 1.389-1.25-3.172v-2.045l-1.25-2.7h2.5v-3.886l1.268.86v-2.712l3.065-2.831-1.203-.745 1.203-1.923h.84v-2.538l1.006-1.955H160.615l1.399 1.955.817 1.525v3.68l-.817.867.817 4.677-.817 2.033.817 3.693v3.828l-2.216 1.937.745 6-2.188.971-1.108-.97-2.211 2.702M163.05 302.749l1.663 2.779-1.662 1.113.83 1.181.832 1.38 2.002 1.148 2.122 2.212 2.927 2.921 1.139 1.292 3.305-1.292 2.126 1.292 1.905.87 1.631.992 3.68 6.39M194.688 318.37v-2.46l-4.269-.558-1.102-3.344 1.102-2.847 1.583-2.24 1.282-2.074.582-3.363v-10.351l-.582-1.372h-2.865l-3.448-1.922-1.76.784v-3.313l-5.078-3.122v-2.032l-6.116.66-7.774 4.494-3.017-.869"/>
          <path d="M193.093 289.63l.966-1.04 1.418 1.947h1.728l4.322 8.218-1.3 2.68 1.3 2.426-1.3 1.222V311.626l-2.204-1.12v-2.13l-2.546-.536v2.665l-3.462 1.121-2.057 1.974M213.166 322.988h2.668l2.939 4.58M142.555 299.888l1.148-2.076 2.23-1.95 2.584.846M141.097 293.425l.585-4.618V280.239l1.253-3.076v-1.66l1.708-1.649v3.309l2.023.56h1.418l1.748 2.516 1.19 2.5 1.737 2.409.592 1.363M156.636 280.288l-2.742-1.841-1.64-1.914v-10.268h1.64l.55-2.904h2.192v-1.98l1.807 1.98 1.973-1.046.879 2.782 1.232 2.652 1.949.954 1.718-.954 2.375.954 2.07 2.131h2.918l2.809 2.167v2.541l2.095.991v4.059M458.34 391.049l-5.83-2.895h-11.071l-8.558 2.895h-3.893l-4.706-2.895-3.619 1.447v4.528l-11.996-1.467-2.706 4.388-11.158 7.69-1.576 2.097-1.806 2.787-2.954-1.653-1.539-3.23h-5.495l-1.716-4.064-2.101-1.788v-6.227h-1.823l-4.2-6.357h-16.88l-4.98-7.48-13.073-10.331-14.427 1.769-3.455 26.787h-3.451l-6.125-8.896-8.448 1.447"/>
          <path d="M177.443 275.736l2.2-2.03 2.17-1.43 1.096 1.43.827-3.182 1.826-1.58h3.183l3.128-.84 1.493-1.653 1.244-3.974 1.008-2.64h2.849l3.298 1.438 2.738 2.532 2.31 1.943 1.656 2.037v1.157l.961 1.58 2.048.845 1.64 2.337h1.774v2.03l3.587 1.924v1.977l2.156-2.564 3.277-2.132 2.764 2.132M195.272 259.433l1.81-2.517v-2.65l3.35-1.185 2.341-1.228 1.477-4.168 1.463-2.016M204.449 239.885l-2.087-2.489-3.01-2.909-2.485-2.342"/>
          <path d="M182.01 272.26l-1.475-3.24-1.049-2.737h-2.103l-1.717-2.542h-2.172v-3.378l-1.762-.866v-1.031h-7.51l-.996-1.607-2.022 1.607-.884 3.694"/>
          <path d="M171.476 258.337v-2.058l1.388-1.189-1.388-2.116-1.176-.548v-1.632h1.282l-1.282-1.612v-2.039l-1.71 1.205-1.407-1.205v-2.265h1.407v-1.718l-1.407-2.33.698-2.466h-1.392l-1.222-1.219v-1.487h-5.321l-2.494-.934-1.084-1.623-.81 1.623-.755 2.421h-.692l-.65 3.684v6.314h-5.987l-1.88 5.283v-4.078l-1.578-1.205-3.346-1.424-1-2.56-.838-.924h-.893l-.542-2.273-2.312 1.636v2.645l2.312 1.476v2.63h1.435l1.838 3.349v2.272l2.647 4.367.7 3.056 2.34 1.918 2.17.663 1.263 1.284 2.574.889"/>
          <path d="M152.111 269.32l-1.832-1.272-.907 1.272-1.616-1.272-1.227 1.272h-2.321l-.965 1.574-.952-3.554-3.645-2.388h1.65v-2.957l1.995-2.442h.952M137.234 248.395l-1.334-2.003-1.412 2.003v-2.561l-2.341 2.56-.842-5.089-3.681 3.087 1.156-6.388-3.344 1.204-2.207-3.139-.697 1.935-1.043 1.204-1.433 1.386-.988-1.386-.81 3.986h-1.788l-.833 3.2 1.746 1.753-1.746 1.9M123.563 238.065l1.421-2.935-1.42-1.765h-1.205l2.625-1.182 5.64-2.17v1.451l2.519.719 1.022-2.954 3.403-1.841 3.063-.735-.607-3.631-1.402-2.49-1.054-2.179 2.456-2.214 1.249-1.667.597-1.313h1.147l1.21-2.198.766-2.635 2.31-.838 1.69-1.7v-1.97l1.961 1.97h2.58l2.1-2.506 2.73-1.337 2.897-2.946"/>
          <path d="M141.57 214.22l-.987-1.198-1.335.599-.754 1.354-1.363-.755v-3.13l2.117-2.548-2.117-.624v-1.7h1.363l-.653-3.32 1.407-2.892-.754-1.422.856-2.831M142.307 197.587v1.795l.569 1.134h1.834l.936 1.666.654 1.814-.654 1.307v2.389M99.89 241.498l-.889-2.65-1.512-1.91V233.4l-.274-3.418-1.766-1.179-.406-2.41-.43-2.8v-4.295l.836-3.087M62.064 220.217l1.358-2.575h3.249l.574-2.722 2.644-1.106 1.463-2.374 2.275-1.982 2.579-1.71.56-1.503 2.624-1.319 1.8 1.32.724-2.573.92-2.362-.92-1.516-.724-2.912-.828-.613 1.552-2.254-1.552-1.501M196.594 181.418h2.16v2.257l2.26-1.128 2.417-2.269h3.76l2.098-2.743 2.578-3.394 1.72.98.842-.98 1.122-4.238 3.792-2.276 3.595-3.855 2.363-2.903 3.706-.92 2.135.92.84.992 2.17-.992v-2.324l4.674-.938 2.253-2.167 3.933-3.092 2.006.965 2.556-.965 3.352-1.477 2.286-3.026 5.265-1.103 1.243 2.198 2.041-1.095 1.118-1.729 1.473 1.729v1.095l.87 1.272 2.037-.64 1.125-1.727v-1.103l2.94 1.103h1.202v2.367l-1.202 2.136 1.202 2.165h1.872l1.21 2.391 3.5-1.464 2.453-2.127 2.29-.965h2.453l3.063.965v3.591l-2.38 3.045"/>
          <path d="M271.52 147.03V154.377l.67 1.456v1.781l-.67 1.958-2.368 1.769v1.939h-1.979v2.596l-1.789 1.28-1.791 1.51-.546 2.696-1.617 2.443M166.242 237.58l2.43-2.494 1.45-4.227 4.3-3.656v-4.033h2.25l2.226-4.762h2.113M666.65 290.753V276.558l1.067-4.628-1.066-1.61v-1.85h2.15l2.507-2.638-2.329-3.89 2.33-3.264v-4.286l-2.33-4.285h4.918M683.278 280.627v3.467l-2.512 2.568v8.082M11.85 240.468l1.425 20.777 2.67-7.782 1.826 2.992 5.746-10.738 2.684 16.847 3.17-6.109 3.91-4.939 3.788 3.496v6.233l2.895 1.319 3.023 1.525 2.03 2.731 3.242-2.73 2.198 2.73v-2.73l2.596 8.496 2.245-1.132v-4.634l1.395-4.256 4.621-3.932v-5.169"/>
          <path d="M27.452 234.088v10.55l1.369 4.779v37.898l-.685 6.177.685 10.484v12.429l1.723 8.056v8.083l1.946 10.96v4.754l1.635 4.488-1.635 4.279 1.635 2.75 2.767 3.702 2.574 5.08h4.741l3.835 2.333h5.035l3.036 3.065 4.421 2.527 5.045 1.912v-7.504l-2.312-4.815v-13.329h2.312l5.403-11.542 2.867-8.66"/>
          <path d="M92.124 292.84h-3.151v3.165l-2.5 2.698-3.065 4.232h-3.852l-1.54 3.632v14.958l-4.525 10.872h4.524l2.784-4.98 5.674 1.84 1.434-4.166M28.727 284.297l-1.276-4.588v-1.506h-2.847v6.094l-3.9 6.577-2.426 7.501v6.219l-3.527 5.144v7.558l-2.201 4.962v3.062l-2.695-5.9v-7.903l-4.168-6.923v-20.297l-1.951-6.094v-4.167l1.951-3.236v-7.662M66.148 378.805l2.397 4.137 1.674 5.908 2.161 3.668 4.478 3.354 4.535 1.757 27.445 54.972 1.74-2.68 4.292 4.648 2.147-11.722 1.892-3.773 3.113-8.71 1.854-7.678 3.375-7.895v-6.764l2.496-4.811v-7.344l3.722-3.354v-3.668h3.815"/>
          <path d="M35.652 362l-2.382 7.062v3.666l-1.486 1.943h-3.066l-1.312-3.85-3.631-5.237L22.624 362l-1.24-2.472-2.149-4.555-1.334-3.775-1.476-2.569-2.132-1.363H11.99v-3.737l-1.103-1.293-1.166 1.293-2.014 1.77-1.549-3.063v-4.683l-1.394-2.6v-10.388l-2.179-7.65L4.765 313l-2.179-4.39v-4.321l-2.065-3.927"/>
        </g>
        <path fill="url(#f)" fill-rule="nonzero" mask="url(#e)" d="M1 422h706.383v11.043H1z"/>
      </g>
    </g>
    <g mask="url(#b)" fill-rule="nonzero">
      <path d="M.499 128.889c9.331.902 24.936 7.955 46.813 21.16" stroke="#000" opacity=".15" filter="url(#g)" transform="translate(255 139)"/>
      <g transform="translate(255 139)">
        <use stroke="#FFF" stroke-width="2.5" xlink:href="#h"/>
        <use stroke="#43A8FF" stroke-width="2" xlink:href="#h"/>
      </g>
      <path d="M47.21 149.17C120.769 94.923 223.442 58.92 355.23 41.166" stroke="#000" opacity=".12" filter="url(#i)" transform="translate(255 139)"/>
      <g transform="translate(255 139)">
        <use stroke="#FFF" stroke-width="2.5" xlink:href="#j"/>
        <use stroke="#43A8FF" stroke-width="2" xlink:href="#j"/>
      </g>
      <path stroke="#43A8FF" stroke-width="2" d="M610.751 178.894l1.098-3.889 4.356-3.471-.362-5.523-2.82-2.94 3.182-5.263 1.17-4.064-1.17-4.13.823-3.368.348-5.115v-1.373"/>
    </g>
    <g mask="url(#b)" fill-rule="nonzero">
      <g transform="translate(251.915 134.723)">
        <use fill="#000" filter="url(#k)" xlink:href="#l"/>
        <circle stroke="#43A8FF" stroke-width="1.5" stroke-linejoin="square" fill="url(#m)" fill-rule="evenodd" cx="3.5" cy="133.16" r="2.75"/>
      </g>
      <g transform="translate(251.915 134.723)">
        <use fill="#000" filter="url(#n)" xlink:href="#o"/>
        <circle stroke="#43A8FF" stroke-width="1.5" stroke-linejoin="square" fill="url(#m)" fill-rule="evenodd" cx="50.309" cy="152.734" r="2.75"/>
      </g>
      <g transform="translate(251.915 134.723)">
        <use fill="#000" filter="url(#p)" xlink:href="#q"/>
        <circle stroke="#43A8FF" stroke-width="1.5" stroke-linejoin="square" fill="url(#m)" fill-rule="evenodd" cx="358.245" cy="45.649" r="2.75"/>
      </g>
      <g transform="translate(251.915 134.723)">
        <use fill="#000" filter="url(#r)" xlink:href="#s"/>
        <circle stroke="#43A8FF" stroke-width="1.5" stroke-linejoin="square" fill="url(#m)" fill-rule="evenodd" cx="366.053" cy="3.5" r="2.75"/>
      </g>
    </g>
    <g filter="url(#t)" mask="url(#b)" fill-rule="nonzero">
      <path fill="#FFF" d="M535 133h11v8h-11z"/>
      <path fill="#0039A6" d="M535 135.667h11V141h-11z"/>
      <path fill="#D52B1E" d="M535 138.333h11V141h-11z"/>
    </g>
    <g filter="url(#u)" mask="url(#b)" fill-rule="nonzero">
      <path fill="#006A44" d="M226 277h10.983v7.949H226z"/>
      <path fill="#C1272D" d="M226 282.334h10.983v2.649H226z"/>
      <path fill="#FDB913" d="M226 277h10.983v2.65H226z"/>
    </g>
    <g mask="url(#b)">
      <path d="M244.517 285h-1.783l-2.382-7.046h1.665l1.601 5.386h.088l1.572-5.386h1.587L244.517 285zm5.024 0h-1.475v-7.046h1.475V285zm6.318-1.284V285h-4.609v-7.046h1.475v5.762h3.134zm2.75 1.284h-1.412v-7.046h1.23l3.243 4.39h.088v-4.39h1.41V285h-1.22l-3.252-4.41h-.088V285zm7.744 0h-1.475v-7.046h1.475V285zm3.198-7.046v4.463c0 .889.532 1.455 1.474 1.455.948 0 1.48-.566 1.48-1.455v-4.463h1.474v4.614c0 1.563-1.147 2.613-2.954 2.613-1.801 0-2.949-1.05-2.949-2.613v-4.614h1.475zm5.83 5.088h1.426c.068.571.644.937 1.474.937.767 0 1.309-.37 1.309-.903 0-.449-.352-.708-1.216-.893l-.918-.196c-1.284-.268-1.914-.937-1.914-2.011 0-1.329 1.07-2.203 2.695-2.203 1.553 0 2.652.87 2.696 2.124h-1.387c-.068-.556-.586-.927-1.299-.927-.737 0-1.226.342-1.226.879 0 .434.337.683 1.163.859l.85.18c1.415.299 2.026.909 2.026 2.003 0 1.42-1.09 2.29-2.857 2.29-1.68 0-2.768-.826-2.822-2.139zM286.315 306h-1.367v-4.712h-.078l-1.792 4.307h-.981l-1.797-4.307h-.078V306h-1.368v-7.046h1.739l1.948 4.736h.088l1.953-4.736h1.733V306zm4.79-7.227c2.08 0 3.384 1.421 3.384 3.702 0 2.285-1.299 3.706-3.384 3.706-2.09 0-3.393-1.421-3.393-3.706 0-2.286 1.323-3.702 3.393-3.702zm0 1.294c-1.142 0-1.884.933-1.884 2.408 0 1.47.727 2.412 1.884 2.412 1.148 0 1.88-.943 1.88-2.412 0-1.475-.732-2.408-1.88-2.408zm4.463 3.975h1.426c.068.571.645.937 1.475.937.766 0 1.308-.37 1.308-.903 0-.449-.351-.708-1.215-.893l-.918-.196c-1.285-.268-1.915-.937-1.915-2.011 0-1.329 1.07-2.203 2.696-2.203 1.553 0 2.651.87 2.695 2.124h-1.387c-.068-.556-.586-.927-1.298-.927-.738 0-1.226.342-1.226.879 0 .434.337.683 1.162.859l.85.18c1.416.299 2.026.909 2.026 2.003 0 1.42-1.089 2.29-2.856 2.29-1.68 0-2.769-.826-2.823-2.139zm10.064 2.139c-2.041 0-3.306-1.411-3.306-3.706 0-2.29 1.26-3.702 3.306-3.702 1.67 0 2.95 1.109 3.056 2.642h-1.435c-.142-.81-.781-1.343-1.621-1.343-1.109 0-1.797.918-1.797 2.403 0 1.484.688 2.407 1.802 2.407.844 0 1.48-.498 1.62-1.275h1.436c-.122 1.524-1.362 2.574-3.061 2.574zm7.5-7.408c2.08 0 3.384 1.421 3.384 3.702 0 2.285-1.3 3.706-3.384 3.706-2.09 0-3.394-1.421-3.394-3.706 0-2.286 1.324-3.702 3.394-3.702zm0 1.294c-1.143 0-1.885.933-1.885 2.408 0 1.47.728 2.412 1.885 2.412 1.147 0 1.88-.943 1.88-2.412 0-1.475-.733-2.408-1.88-2.408zm8.93 1.27L320.744 306h-1.391l-1.866-7.046h1.534l1.098 4.966h.078l1.284-4.966h1.246l1.308 4.966h.078l1.09-4.966h1.523l-1.87 7.046h-1.382l-1.333-4.663h-.079zM590.282 199h-1.474v-2.593l-2.456-4.453h1.596l1.553 2.95h.088l1.548-2.95h1.596l-2.45 4.453V199zm8.184 0l-.532-1.68h-2.476l-.542 1.68h-1.48l2.447-7.046h1.733l2.446 7.046h-1.596zm-1.807-5.581l-.884 2.764h1.846l-.874-2.764h-.088zm6.08 5.581h-1.475v-7.046h1.474v3.14h.088l2.603-3.14h1.64l-2.568 3.09L607.25 199h-1.768l-2.045-2.95-.699.826V199zm7.109-7.046v4.463c0 .889.532 1.455 1.474 1.455.948 0 1.48-.566 1.48-1.455v-4.463h1.474v4.614c0 1.563-1.147 2.613-2.954 2.613-1.801 0-2.949-1.05-2.949-2.613v-4.614h1.475zm9.33 7.046h-1.474v-5.786h-2.114v-1.26h5.703v1.26h-2.114V199zm3.101-1.958h1.426c.068.571.645.937 1.475.937.766 0 1.308-.37 1.308-.903 0-.449-.351-.708-1.216-.893l-.918-.196c-1.284-.268-1.914-.937-1.914-2.011 0-1.329 1.07-2.203 2.696-2.203 1.552 0 2.651.87 2.695 2.124h-1.387c-.068-.556-.586-.927-1.298-.927-.738 0-1.226.342-1.226.879 0 .434.337.683 1.162.859l.85.18c1.416.299 2.026.909 2.026 2.003 0 1.42-1.089 2.29-2.856 2.29-1.68 0-2.769-.826-2.823-2.139zm8.545 1.958h-1.474v-7.046h1.474v3.14h.088l2.603-3.14h1.64l-2.568 3.09 2.749 3.956h-1.768l-2.046-2.95-.698.826V199z" fill="#0A72CC"/>
      <g transform="translate(240 131)">
        <use fill="#000" filter="url(#v)" xlink:href="#w"/>
        <use fill="#0A72CC" xlink:href="#w"/>
      </g>
      <g>
        <path d="M773.958 350.768l-.043 2.468c-.021 1.21-.825 2.017-2.035 1.996-1.2-.02-1.97-.898-1.948-2.151l.017-.95-1.652-.028.025-1.434 5.636.099zm-1.127 1.414l-1.8-.031-.011.648c-.011.61.295.974.88.984.595.01.91-.34.92-.945l.011-.656zm-4.688 8.724l1.244-.33.033-1.84-1.232-.384.025-1.422 5.602 1.989-.03 1.754-5.669 1.795.027-1.562zm4.39-1.224l-2.087-.654-.023 1.297 2.108-.569.001-.074zm-4.65 7.447c.029-1.687 1.18-2.706 3.019-2.674 1.84.032 2.95 1.087 2.92 2.778-.024 1.418-.988 2.475-2.266 2.496l.024-1.379c.615-.063 1.037-.521 1.048-1.138.013-.785-.65-1.277-1.748-1.296-1.101-.02-1.789.449-1.803 1.238-.01.617.38 1.085.984 1.177l-.024 1.375c-1.288-.07-2.18-1.132-2.155-2.577zm.038 6.51l.025-1.434 5.636.099-.025 1.433-5.636-.098zm-.074 4.26l.025-1.433 5.635.099-.066 3.835-1.153-.02.042-2.402-1.285-.023-.038 2.18-1.097-.02.038-2.179-2.101-.036zm-.112 6.386l.025-1.433 5.636.098-.025 1.434-5.636-.099zm-.244 5.286c.029-1.687 1.18-2.706 3.02-2.674 1.839.032 2.95 1.087 2.92 2.778-.025 1.417-.989 2.475-2.267 2.496l.025-1.379c.614-.064 1.036-.521 1.047-1.138.014-.785-.65-1.277-1.747-1.296-1.102-.02-1.79.449-1.803 1.238-.011.617.38 1.085.983 1.177l-.024 1.375c-1.288-.07-2.18-1.132-2.154-2.577zm-3.481-33.134c-.03 1.695-1.185 2.753-3.017 2.721-1.836-.032-2.953-1.13-2.924-2.825.03-1.703 1.185-2.76 3.02-2.729 1.833.032 2.95 1.142 2.92 2.833zm-1.188-.02c.014-.794-.672-1.333-1.758-1.352-1.09-.02-1.794.488-1.808 1.289-.013.793.673 1.328 1.762 1.347 1.086.02 1.79-.496 1.804-1.285zm-4.889 7.712c.03-1.687 1.18-2.707 3.02-2.674 1.84.032 2.95 1.086 2.92 2.778-.024 1.417-.988 2.475-2.266 2.496l.024-1.38c.615-.063 1.037-.52 1.047-1.137.014-.785-.65-1.277-1.747-1.297-1.101-.019-1.79.45-1.803 1.239-.01.617.38 1.085.984 1.177l-.024 1.375c-1.288-.07-2.18-1.132-2.155-2.577zm1.149 8.959l-1.153-.02.068-3.863 5.636.098-.068 3.863-1.152-.02.043-2.43-1.125-.019-.04 2.285-1.055-.019.04-2.284-1.152-.02-.042 2.429zm-1.263 6.299l1.244-.33.032-1.84-1.231-.384.025-1.422 5.602 1.989-.03 1.753-5.67 1.796.028-1.562zm4.39-1.224l-2.087-.654-.023 1.297 2.108-.57.001-.073zm-4.484 6.59l.024-1.359 5.636.099-.02 1.144-3.212 2.292-.002.074 3.172.055-.024 1.36-5.636-.099.02-1.136 3.244-2.3.001-.074-3.203-.056zM441.295 97.238l-.437-1.211-1.836.128-.276 1.26-1.418.1 1.493-5.755 1.75-.122 2.282 5.49-1.558.11zm-1.603-4.266l-.469 2.135 1.294-.09-.75-2.05-.075.005zm8.21-.762l.109 1.566.846-.059c.526-.037.817-.35.783-.838-.034-.479-.386-.764-.897-.728l-.842.059zm.18 2.576l.137 1.968-1.43.1-.393-5.623 2.474-.174c1.313-.091 2.15.547 2.23 1.708.049.69-.25 1.345-.847 1.657l1.274 2.1-1.605.112-1.1-1.9-.74.052zm9.878 1.44c-1.683.117-2.799-.94-2.927-2.776-.129-1.836.825-3.034 2.512-3.152 1.415-.099 2.553.77 2.685 2.04l-1.376.097c-.117-.607-.61-.988-1.225-.944-.783.054-1.216.758-1.14 1.853.078 1.099.604 1.743 1.391 1.688.616-.043 1.048-.472 1.088-1.082l1.371-.096c.044 1.29-.937 2.27-2.38 2.371zm9.213-.798l-1.426.1-.313-4.474-1.621.114-.08-1.15 4.672-.326.08 1.15-1.625.113.313 4.473zm7.065-.494l-1.43.1-.394-5.623 1.43-.1.394 5.623zm6.783-.321c-1.684.117-2.8-.94-2.927-2.776-.129-1.835.825-3.033 2.512-3.151 1.415-.1 2.552.769 2.684 2.04l-1.375.096c-.117-.606-.61-.987-1.225-.944-.784.055-1.216.758-1.14 1.853.077 1.1.604 1.744 1.391 1.689.616-.043 1.048-.473 1.088-1.083l1.371-.095c.043 1.289-.937 2.27-2.38 2.37zm-36.446 6.617c1.691-.119 2.846.94 2.974 2.768.128 1.831-.868 3.04-2.56 3.158-1.698.12-2.853-.94-2.981-2.77-.128-1.829.88-3.038 2.567-3.156zm.083 1.184c-.791.055-1.269.786-1.193 1.87.076 1.086.643 1.744 1.442 1.688.79-.055 1.265-.786 1.189-1.873-.076-1.083-.65-1.74-1.438-1.685zm9.606 4.094c-1.683.118-2.799-.94-2.927-2.775-.129-1.836.825-3.034 2.512-3.152 1.415-.099 2.553.77 2.685 2.04l-1.376.097c-.117-.607-.61-.988-1.225-.945-.783.055-1.216.759-1.14 1.854.078 1.099.604 1.743 1.391 1.688.616-.043 1.048-.472 1.088-1.082l1.371-.096c.044 1.29-.937 2.27-2.38 2.37zm10.321-2.03l.08 1.15-3.853.27-.394-5.624 3.854-.27.08 1.15-2.423.17.078 1.122 2.28-.16.073 1.053-2.28.16.081 1.149 2.424-.17zm7.882.604l-.437-1.21-1.836.128-.276 1.26-1.418.1 1.493-5.755 1.75-.122 2.282 5.49-1.558.11zm-1.603-4.265l-.469 2.135 1.294-.09-.75-2.05-.075.005zm8.453 3.786l-1.356.095-.393-5.623 1.142-.08 2.563 3 .074-.004-.221-3.165 1.356-.094.393 5.623-1.134.079-2.573-3.031-.074.005.223 3.195z" fill="#E0E9EE"/>
        <path d="M64.172 243.254l-1.145-.587-1.255 1.346.658 1.11-.97 1.04-2.833-5.227 1.196-1.283 5.415 2.459-1.066 1.142zm-4.08-2.027l1.112 1.882.885-.948-1.947-.988-.05.054zm9.318-3.59l-.975 1.046-3.28-3.058-1.108 1.189-.843-.786 3.194-3.426.843.786-1.11 1.191 3.279 3.059zm5.597-7.737l.866.807-2.611 2.8-4.122-3.844.977-1.049 3.257 3.037 1.633-1.751zm6.077-4.78l-1.146-.588-1.254 1.345.657 1.11-.97 1.04-2.832-5.227 1.196-1.282 5.414 2.458-1.065 1.143zm-4.081-2.028l1.113 1.882.884-.948-1.947-.988-.05.054zm8.764-2.995l-.927.994-4.122-3.844.78-.837 3.921.446.05-.054-2.32-2.164.928-.994 4.122 3.844-.775.832-3.949-.462-.05.054 2.342 2.185zm7.257-7.782l-.975 1.045-3.28-3.058-1.108 1.188-.843-.785 3.194-3.426.843.786-1.11 1.191 3.279 3.059zm4.83-5.18l-.978 1.049-4.122-3.845.977-1.048 4.123 3.844zm4.741-4.861c-1.15 1.234-2.688 1.221-4.033-.033-1.346-1.255-1.465-2.782-.312-4.02.967-1.036 2.391-1.177 3.355-.337l-.94 1.008c-.5-.364-1.12-.306-1.54.145-.536.574-.372 1.384.43 2.133.806.75 1.63.863 2.169.286.42-.452.444-1.06.057-1.533l.938-1.006c.91.914.862 2.3-.124 3.357zm-27.721 35.679c1.156-1.24 2.723-1.253 4.063-.004 1.342 1.252 1.438 2.816.282 4.056-1.161 1.245-2.728 1.259-4.07.007-1.34-1.25-1.429-2.822-.275-4.06zm.868.81c-.54.58-.392 1.44.403 2.18.797.743 1.66.838 2.206.252.54-.58.389-1.437-.408-2.18-.794-.74-1.663-.83-2.2-.252zm9.818-3.557c-1.151 1.234-2.688 1.221-4.034-.034-1.346-1.255-1.465-2.782-.312-4.019.967-1.037 2.391-1.177 3.355-.338l-.94 1.009c-.5-.364-1.12-.307-1.54.145-.536.574-.372 1.384.43 2.132.806.751 1.63.864 2.169.286.42-.45.444-1.06.057-1.533l.938-1.005c.91.913.862 2.3-.123 3.357zm6.164-8.524l.842.786-2.634 2.826-4.123-3.845 2.635-2.825.843.786-1.657 1.777.823.767 1.558-1.671.771.719-1.558 1.671.843.786 1.657-1.777zm6.176-4.933l-1.145-.588-1.255 1.346.658 1.11-.97 1.04-2.833-5.227 1.196-1.283 5.415 2.459-1.066 1.143zm-4.081-2.027l1.113 1.882.885-.949-1.948-.988-.05.055zm8.764-2.996l-.927.995-4.122-3.845.78-.837 3.921.446.05-.054-2.319-2.163.927-.994 4.123 3.844-.776.831-3.949-.461-.05.054 2.342 2.184z" fill="#C0D9E6" opacity=".6"/>
      </g>
    </g>
  </g>
</svg>
